<?xml version="1.0" encoding="UTF-8" standalone="no"?>
<!DOCTYPE svg PUBLIC "-//W3C//DTD SVG 1.1//EN"
 "http://www.w3.org/Graphics/SVG/1.1/DTD/svg11.dtd">
<!-- Generated by graphviz version 2.26.3 (20100126.1600)
 -->
<!-- Title: proc~~tokenize~~CalledByGraph Pages: 1 -->
<svg width="392pt" height="556pt"
 viewBox="0.00 0.00 392.00 556.00" xmlns="http://www.w3.org/2000/svg" xmlns:xlink="http://www.w3.org/1999/xlink">
<g id="graph1" class="graph" transform="scale(1 1) rotate(0) translate(4 552)">
<title>proc~~tokenize~~CalledByGraph</title>
<polygon fill="white" stroke="white" points="-4,5 -4,-552 389,-552 389,5 -4,5"/>
<!-- proc~tokenize -->
<g id="node1" class="node"><title>proc~tokenize</title>
<polygon fill="none" stroke="black" points="384,-284 330,-284 330,-258 384,-258 384,-284"/>
<text text-anchor="middle" x="357" y="-268.55" font-family="Helvetica,sans-Serif" font-size="10.50">tokenize</text>
</g>
<!-- proc~check_choices_cla -->
<g id="node2" class="node"><title>proc~check_choices_cla</title>
<a xlink:href="../proc/check_choices_cla.html" xlink:title="check_choices_cla">
<polygon fill="#d9534f" stroke="#d9534f" points="274,-548 172,-548 172,-522 274,-522 274,-548"/>
<text text-anchor="middle" x="223" y="-532.55" font-family="Helvetica,sans-Serif" font-size="10.50" fill="white">check_choices_cla</text>
</a>
</g>
<!-- proc~check_choices_cla&#45;&gt;proc~tokenize -->
<g id="edge4" class="edge"><title>proc~check_choices_cla&#45;&gt;proc~tokenize</title>
<path fill="none" stroke="black" d="M274.003,-526.214C281.46,-523.059 288.474,-518.786 294,-513 324.369,-481.207 346.12,-348.233 353.879,-294.089"/>
<polygon fill="black" stroke="black" points="357.36,-294.468 355.282,-284.079 350.428,-293.497 357.36,-294.468"/>
</g>
<!-- proc~get_cla_list_varying_r16p -->
<g id="node3" class="node"><title>proc~get_cla_list_varying_r16p</title>
<a xlink:href="../proc/get_cla_list_varying_r16p.html" xlink:title="get_cla_list_varying_R16P">
<polygon fill="#d9534f" stroke="#d9534f" points="292,-504 154,-504 154,-478 292,-478 292,-504"/>
<text text-anchor="middle" x="223" y="-488.55" font-family="Helvetica,sans-Serif" font-size="10.50" fill="white">get_cla_list_varying_R16P</text>
</a>
</g>
<!-- proc~get_cla_list_varying_r16p&#45;&gt;proc~tokenize -->
<g id="edge6" class="edge"><title>proc~get_cla_list_varying_r16p&#45;&gt;proc~tokenize</title>
<path fill="none" stroke="black" d="M282.199,-477.825C286.508,-475.368 290.519,-472.454 294,-469 319.126,-444.064 342.755,-340.984 352.414,-294.237"/>
<polygon fill="black" stroke="black" points="355.903,-294.646 354.462,-284.15 349.043,-293.254 355.903,-294.646"/>
</g>
<!-- proc~get_cla_list_varying_i1p -->
<g id="node4" class="node"><title>proc~get_cla_list_varying_i1p</title>
<a xlink:href="../proc/get_cla_list_varying_i1p.html" xlink:title="get_cla_list_varying_I1P">
<polygon fill="#d9534f" stroke="#d9534f" points="287,-460 159,-460 159,-434 287,-434 287,-460"/>
<text text-anchor="middle" x="223" y="-444.55" font-family="Helvetica,sans-Serif" font-size="10.50" fill="white">get_cla_list_varying_I1P</text>
</a>
</g>
<!-- proc~get_cla_list_varying_i1p&#45;&gt;proc~tokenize -->
<g id="edge8" class="edge"><title>proc~get_cla_list_varying_i1p&#45;&gt;proc~tokenize</title>
<path fill="none" stroke="black" d="M281.211,-433.889C285.843,-431.42 290.193,-428.486 294,-425 332.279,-389.944 347.86,-328.229 353.747,-294.55"/>
<polygon fill="black" stroke="black" points="357.266,-294.71 355.391,-284.282 350.354,-293.603 357.266,-294.71"/>
</g>
<!-- proc~get_cla_list_varying_char -->
<g id="node5" class="node"><title>proc~get_cla_list_varying_char</title>
<a xlink:href="../proc/get_cla_list_varying_char.html" xlink:title="get_cla_list_varying_char">
<polygon fill="#d9534f" stroke="#d9534f" points="289,-416 157,-416 157,-390 289,-390 289,-416"/>
<text text-anchor="middle" x="223" y="-400.55" font-family="Helvetica,sans-Serif" font-size="10.50" fill="white">get_cla_list_varying_char</text>
</a>
</g>
<!-- proc~get_cla_list_varying_char&#45;&gt;proc~tokenize -->
<g id="edge10" class="edge"><title>proc~get_cla_list_varying_char&#45;&gt;proc~tokenize</title>
<path fill="none" stroke="black" d="M279.671,-389.86C284.791,-387.395 289.67,-384.47 294,-381 322.401,-358.241 340.399,-318.982 349.582,-294.039"/>
<polygon fill="black" stroke="black" points="352.985,-294.91 352.983,-284.315 346.378,-292.599 352.985,-294.91"/>
</g>
<!-- proc~get_cla_list_varying_r8p -->
<g id="node6" class="node"><title>proc~get_cla_list_varying_r8p</title>
<a xlink:href="../proc/get_cla_list_varying_r8p.html" xlink:title="get_cla_list_varying_R8P">
<polygon fill="#d9534f" stroke="#d9534f" points="289,-372 157,-372 157,-346 289,-346 289,-372"/>
<text text-anchor="middle" x="223" y="-356.55" font-family="Helvetica,sans-Serif" font-size="10.50" fill="white">get_cla_list_varying_R8P</text>
</a>
</g>
<!-- proc~get_cla_list_varying_r8p&#45;&gt;proc~tokenize -->
<g id="edge12" class="edge"><title>proc~get_cla_list_varying_r8p&#45;&gt;proc~tokenize</title>
<path fill="none" stroke="black" d="M275.906,-345.938C282.221,-343.423 288.405,-340.466 294,-337 312.912,-325.286 330.034,-306.562 341.638,-292.044"/>
<polygon fill="black" stroke="black" points="344.458,-294.119 347.805,-284.067 338.92,-289.838 344.458,-294.119"/>
</g>
<!-- proc~get_cla_list_varying_i2p -->
<g id="node7" class="node"><title>proc~get_cla_list_varying_i2p</title>
<a xlink:href="../proc/get_cla_list_varying_i2p.html" xlink:title="get_cla_list_varying_I2P">
<polygon fill="#d9534f" stroke="#d9534f" points="287,-328 159,-328 159,-302 287,-302 287,-328"/>
<text text-anchor="middle" x="223" y="-312.55" font-family="Helvetica,sans-Serif" font-size="10.50" fill="white">get_cla_list_varying_I2P</text>
</a>
</g>
<!-- proc~get_cla_list_varying_i2p&#45;&gt;proc~tokenize -->
<g id="edge14" class="edge"><title>proc~get_cla_list_varying_i2p&#45;&gt;proc~tokenize</title>
<path fill="none" stroke="black" d="M265.879,-301.982C275.171,-299.087 284.93,-295.988 294,-293 302.554,-290.182 311.723,-287.047 320.344,-284.047"/>
<polygon fill="black" stroke="black" points="321.502,-287.35 329.783,-280.741 319.188,-280.743 321.502,-287.35"/>
</g>
<!-- proc~get_cla_list -->
<g id="node8" class="node"><title>proc~get_cla_list</title>
<a xlink:href="../proc/get_cla_list.html" xlink:title="get_cla_list">
<polygon fill="#d9534f" stroke="#d9534f" points="256,-284 190,-284 190,-258 256,-258 256,-284"/>
<text text-anchor="middle" x="223" y="-268.55" font-family="Helvetica,sans-Serif" font-size="10.50" fill="white">get_cla_list</text>
</a>
</g>
<!-- proc~get_cla_list&#45;&gt;proc~tokenize -->
<g id="edge16" class="edge"><title>proc~get_cla_list&#45;&gt;proc~tokenize</title>
<path fill="none" stroke="black" d="M256.124,-271C275.307,-271 299.518,-271 319.412,-271"/>
<polygon fill="black" stroke="black" points="319.666,-274.5 329.666,-271 319.666,-267.5 319.666,-274.5"/>
</g>
<!-- proc~get_cla_list_varying_r4p -->
<g id="node9" class="node"><title>proc~get_cla_list_varying_r4p</title>
<a xlink:href="../proc/get_cla_list_varying_r4p.html" xlink:title="get_cla_list_varying_R4P">
<polygon fill="#d9534f" stroke="#d9534f" points="289,-240 157,-240 157,-214 289,-214 289,-240"/>
<text text-anchor="middle" x="223" y="-224.55" font-family="Helvetica,sans-Serif" font-size="10.50" fill="white">get_cla_list_varying_R4P</text>
</a>
</g>
<!-- proc~get_cla_list_varying_r4p&#45;&gt;proc~tokenize -->
<g id="edge18" class="edge"><title>proc~get_cla_list_varying_r4p&#45;&gt;proc~tokenize</title>
<path fill="none" stroke="black" d="M265.879,-240.018C275.171,-242.913 284.93,-246.012 294,-249 302.554,-251.818 311.723,-254.953 320.344,-257.953"/>
<polygon fill="black" stroke="black" points="319.188,-261.257 329.783,-261.259 321.502,-254.65 319.188,-261.257"/>
</g>
<!-- none~sanitize_args -->
<g id="node10" class="node"><title>none~sanitize_args</title>
<polygon fill="#d94e8f" stroke="#d94e8f" points="261,-158 185,-158 185,-132 261,-132 261,-158"/>
<text text-anchor="middle" x="223" y="-142.55" font-family="Helvetica,sans-Serif" font-size="10.50" fill="white">sanitize_args</text>
</g>
<!-- none~sanitize_args&#45;&gt;proc~tokenize -->
<g id="edge20" class="edge"><title>none~sanitize_args&#45;&gt;proc~tokenize</title>
<path fill="none" stroke="black" d="M261.134,-154.477C272.522,-158.571 284.492,-164.253 294,-172 319.337,-192.646 337.659,-226.295 347.809,-248.541"/>
<polygon fill="black" stroke="black" points="344.677,-250.115 351.892,-257.873 351.089,-247.308 344.677,-250.115"/>
</g>
<!-- proc~get_cla_list_varying_logical -->
<g id="node11" class="node"><title>proc~get_cla_list_varying_logical</title>
<a xlink:href="../proc/get_cla_list_varying_logical.html" xlink:title="get_cla_list_varying_logical">
<polygon fill="#d9534f" stroke="#d9534f" points="294,-114 152,-114 152,-88 294,-88 294,-114"/>
<text text-anchor="middle" x="223" y="-98.55" font-family="Helvetica,sans-Serif" font-size="10.50" fill="white">get_cla_list_varying_logical</text>
</a>
</g>
<!-- proc~get_cla_list_varying_logical&#45;&gt;proc~tokenize -->
<g id="edge22" class="edge"><title>proc~get_cla_list_varying_logical&#45;&gt;proc~tokenize</title>
<path fill="none" stroke="black" d="M281.159,-114.169C285.801,-116.625 290.169,-119.541 294,-123 331.057,-156.459 347.082,-215.371 353.377,-247.863"/>
<polygon fill="black" stroke="black" points="349.948,-248.568 355.156,-257.795 356.838,-247.334 349.948,-248.568"/>
</g>
<!-- proc~get_args_from_string -->
<g id="node12" class="node"><title>proc~get_args_from_string</title>
<a xlink:href="../proc/get_args_from_string.html" xlink:title="get_args_from_string">
<polygon fill="#d9534f" stroke="#d9534f" points="115,-178 1,-178 1,-152 115,-152 115,-178"/>
<text text-anchor="middle" x="58" y="-162.55" font-family="Helvetica,sans-Serif" font-size="10.50" fill="white">get_args_from_string</text>
</a>
</g>
<!-- proc~get_args_from_string&#45;&gt;proc~tokenize -->
<g id="edge24" class="edge"><title>proc~get_args_from_string&#45;&gt;proc~tokenize</title>
<path fill="none" stroke="black" d="M115.581,-164.77C165.476,-166.823 238.215,-175.369 294,-205 313.88,-215.56 331.103,-234.734 342.492,-249.704"/>
<polygon fill="black" stroke="black" points="339.777,-251.922 348.499,-257.936 345.431,-247.795 339.777,-251.922"/>
</g>
<!-- proc~get_args_from_string&#45;&gt;none~sanitize_args -->
<g id="edge2" class="edge"><title>proc~get_args_from_string&#45;&gt;none~sanitize_args</title>
<path fill="none" stroke="black" d="M115.709,-158.005C135.077,-155.657 156.454,-153.066 174.996,-150.819"/>
<polygon fill="black" stroke="black" points="175.468,-154.287 184.974,-149.609 174.626,-147.338 175.468,-154.287"/>
</g>
<!-- proc~get_cla_list_varying_i8p -->
<g id="node13" class="node"><title>proc~get_cla_list_varying_i8p</title>
<a xlink:href="../proc/get_cla_list_varying_i8p.html" xlink:title="get_cla_list_varying_I8P">
<polygon fill="#d9534f" stroke="#d9534f" points="287,-70 159,-70 159,-44 287,-44 287,-70"/>
<text text-anchor="middle" x="223" y="-54.55" font-family="Helvetica,sans-Serif" font-size="10.50" fill="white">get_cla_list_varying_I8P</text>
</a>
</g>
<!-- proc~get_cla_list_varying_i8p&#45;&gt;proc~tokenize -->
<g id="edge26" class="edge"><title>proc~get_cla_list_varying_i8p&#45;&gt;proc~tokenize</title>
<path fill="none" stroke="black" d="M281.824,-70.0166C286.269,-72.5065 290.412,-75.4709 294,-79 318.487,-103.084 342.371,-202.647 352.25,-248.139"/>
<polygon fill="black" stroke="black" points="348.838,-248.922 354.349,-257.971 355.684,-247.46 348.838,-248.922"/>
</g>
<!-- proc~get_cla_list_varying_i4p -->
<g id="node14" class="node"><title>proc~get_cla_list_varying_i4p</title>
<a xlink:href="../proc/get_cla_list_varying_i4p.html" xlink:title="get_cla_list_varying_I4P">
<polygon fill="#d9534f" stroke="#d9534f" points="287,-26 159,-26 159,-1.24345e-14 287,-3.55271e-15 287,-26"/>
<text text-anchor="middle" x="223" y="-10.55" font-family="Helvetica,sans-Serif" font-size="10.50" fill="white">get_cla_list_varying_I4P</text>
</a>
</g>
<!-- proc~get_cla_list_varying_i4p&#45;&gt;proc~tokenize -->
<g id="edge28" class="edge"><title>proc~get_cla_list_varying_i4p&#45;&gt;proc~tokenize</title>
<path fill="none" stroke="black" d="M282.715,-26.1964C286.856,-28.6507 290.691,-31.5576 294,-35 323.63,-65.8274 345.671,-194.527 353.694,-247.778"/>
<polygon fill="black" stroke="black" points="350.27,-248.551 355.191,-257.934 357.195,-247.53 350.27,-248.551"/>
</g>
</g>
</svg>
