<?xml version="1.0" encoding="UTF-8" standalone="no"?>
<!DOCTYPE svg PUBLIC "-//W3C//DTD SVG 1.1//EN"
 "http://www.w3.org/Graphics/SVG/1.1/DTD/svg11.dtd">
<!-- Generated by graphviz version 2.26.3 (20100126.1600)
 -->
<!-- Title: proc~~get_cla_list_varying_char~~CallsGraph Pages: 1 -->
<svg width="232pt" height="122pt"
 viewBox="0.00 0.00 232.00 122.00" xmlns="http://www.w3.org/2000/svg" xmlns:xlink="http://www.w3.org/1999/xlink">
<g id="graph1" class="graph" transform="scale(1 1) rotate(0) translate(4 118)">
<title>proc~~get_cla_list_varying_char~~CallsGraph</title>
<polygon fill="white" stroke="white" points="-4,5 -4,-118 229,-118 229,5 -4,5"/>
<!-- proc~get_cla_list_varying_char -->
<g id="node1" class="node"><title>proc~get_cla_list_varying_char</title>
<polygon fill="none" stroke="black" points="133,-70 1,-70 1,-44 133,-44 133,-70"/>
<text text-anchor="middle" x="67" y="-54.55" font-family="Helvetica,sans-Serif" font-size="10.50">get_cla_list_varying_char</text>
</g>
<!-- valsd -->
<g id="node2" class="node"><title>valsd</title>
<polygon fill="#777777" stroke="#777777" points="224,-114 170,-114 170,-88 224,-88 224,-114"/>
<text text-anchor="middle" x="197" y="-98.55" font-family="Helvetica,sans-Serif" font-size="10.50" fill="white">valsd</text>
</g>
<!-- proc~get_cla_list_varying_char&#45;&gt;valsd -->
<g id="edge2" class="edge"><title>proc~get_cla_list_varying_char&#45;&gt;valsd</title>
<path fill="none" stroke="black" d="M105.652,-70.0823C122.92,-75.9269 143.175,-82.7822 160.218,-88.5506"/>
<polygon fill="black" stroke="black" points="159.24,-91.9147 169.834,-91.8055 161.484,-85.2842 159.24,-91.9147"/>
</g>
<!-- proc~tokenize -->
<g id="node3" class="node"><title>proc~tokenize</title>
<a xlink:href="../proc/tokenize.html" xlink:title="tokenize">
<polygon fill="#d9534f" stroke="#d9534f" points="224,-70 170,-70 170,-44 224,-44 224,-70"/>
<text text-anchor="middle" x="197" y="-54.55" font-family="Helvetica,sans-Serif" font-size="10.50" fill="white">tokenize</text>
</a>
</g>
<!-- proc~get_cla_list_varying_char&#45;&gt;proc~tokenize -->
<g id="edge4" class="edge"><title>proc~get_cla_list_varying_char&#45;&gt;proc~tokenize</title>
<path fill="none" stroke="black" d="M133.523,-57C142.572,-57 151.581,-57 159.848,-57"/>
<polygon fill="black" stroke="black" points="159.871,-60.5001 169.871,-57 159.871,-53.5001 159.871,-60.5001"/>
</g>
<!-- valsv -->
<g id="node4" class="node"><title>valsv</title>
<polygon fill="#777777" stroke="#777777" points="224,-26 170,-26 170,-1.24345e-14 224,-3.55271e-15 224,-26"/>
<text text-anchor="middle" x="197" y="-10.55" font-family="Helvetica,sans-Serif" font-size="10.50" fill="white">valsv</text>
</g>
<!-- proc~get_cla_list_varying_char&#45;&gt;valsv -->
<g id="edge6" class="edge"><title>proc~get_cla_list_varying_char&#45;&gt;valsv</title>
<path fill="none" stroke="black" d="M105.652,-43.9177C122.92,-38.0731 143.175,-31.2178 160.218,-25.4494"/>
<polygon fill="black" stroke="black" points="161.484,-28.7158 169.834,-22.1945 159.24,-22.0853 161.484,-28.7158"/>
</g>
</g>
</svg>
