<?xml version="1.0" encoding="UTF-8" standalone="no"?>
<!DOCTYPE svg PUBLIC "-//W3C//DTD SVG 1.1//EN"
 "http://www.w3.org/Graphics/SVG/1.1/DTD/svg11.dtd">
<!-- Generated by graphviz version 2.26.3 (20100126.1600)
 -->
<!-- Title: proc~~get_cla_list_varying_r16p~~CallsGraph Pages: 1 -->
<svg width="238pt" height="166pt"
 viewBox="0.00 0.00 238.00 166.00" xmlns="http://www.w3.org/2000/svg" xmlns:xlink="http://www.w3.org/1999/xlink">
<g id="graph1" class="graph" transform="scale(1 1) rotate(0) translate(4 162)">
<title>proc~~get_cla_list_varying_r16p~~CallsGraph</title>
<polygon fill="white" stroke="white" points="-4,5 -4,-162 235,-162 235,5 -4,5"/>
<!-- proc~get_cla_list_varying_r16p -->
<g id="node1" class="node"><title>proc~get_cla_list_varying_r16p</title>
<polygon fill="none" stroke="black" points="139,-92 1,-92 1,-66 139,-66 139,-92"/>
<text text-anchor="middle" x="70" y="-76.55" font-family="Helvetica,sans-Serif" font-size="10.50">get_cla_list_varying_R16P</text>
</g>
<!-- valsd -->
<g id="node2" class="node"><title>valsd</title>
<polygon fill="#777777" stroke="#777777" points="230,-158 176,-158 176,-132 230,-132 230,-158"/>
<text text-anchor="middle" x="203" y="-142.55" font-family="Helvetica,sans-Serif" font-size="10.50" fill="white">valsd</text>
</g>
<!-- proc~get_cla_list_varying_r16p&#45;&gt;valsd -->
<g id="edge2" class="edge"><title>proc~get_cla_list_varying_r16p&#45;&gt;valsd</title>
<path fill="none" stroke="black" d="M96.2765,-92.0395C116.679,-102.164 145.172,-116.303 167.586,-127.426"/>
<polygon fill="black" stroke="black" points="166.265,-130.678 176.778,-131.988 169.376,-124.407 166.265,-130.678"/>
</g>
<!-- cton -->
<g id="node3" class="node"><title>cton</title>
<polygon fill="#777777" stroke="#777777" points="230,-114 176,-114 176,-88 230,-88 230,-114"/>
<text text-anchor="middle" x="203" y="-98.55" font-family="Helvetica,sans-Serif" font-size="10.50" fill="white">cton</text>
</g>
<!-- proc~get_cla_list_varying_r16p&#45;&gt;cton -->
<g id="edge4" class="edge"><title>proc~get_cla_list_varying_r16p&#45;&gt;cton</title>
<path fill="none" stroke="black" d="M139.616,-90.5155C148.631,-92.0067 157.57,-93.4852 165.767,-94.8412"/>
<polygon fill="black" stroke="black" points="165.267,-98.3059 175.704,-96.4849 166.409,-91.3998 165.267,-98.3059"/>
</g>
<!-- proc~tokenize -->
<g id="node4" class="node"><title>proc~tokenize</title>
<a xlink:href="../proc/tokenize.html" xlink:title="tokenize">
<polygon fill="#d9534f" stroke="#d9534f" points="230,-70 176,-70 176,-44 230,-44 230,-70"/>
<text text-anchor="middle" x="203" y="-54.55" font-family="Helvetica,sans-Serif" font-size="10.50" fill="white">tokenize</text>
</a>
</g>
<!-- proc~get_cla_list_varying_r16p&#45;&gt;proc~tokenize -->
<g id="edge6" class="edge"><title>proc~get_cla_list_varying_r16p&#45;&gt;proc~tokenize</title>
<path fill="none" stroke="black" d="M139.616,-67.4845C148.631,-65.9933 157.57,-64.5148 165.767,-63.1588"/>
<polygon fill="black" stroke="black" points="166.409,-66.6002 175.704,-61.5151 165.267,-59.6941 166.409,-66.6002"/>
</g>
<!-- valsv -->
<g id="node5" class="node"><title>valsv</title>
<polygon fill="#777777" stroke="#777777" points="230,-26 176,-26 176,-1.24345e-14 230,-3.55271e-15 230,-26"/>
<text text-anchor="middle" x="203" y="-10.55" font-family="Helvetica,sans-Serif" font-size="10.50" fill="white">valsv</text>
</g>
<!-- proc~get_cla_list_varying_r16p&#45;&gt;valsv -->
<g id="edge8" class="edge"><title>proc~get_cla_list_varying_r16p&#45;&gt;valsv</title>
<path fill="none" stroke="black" d="M96.2765,-65.9605C116.679,-55.8362 145.172,-41.6967 167.586,-30.574"/>
<polygon fill="black" stroke="black" points="169.376,-33.5928 176.778,-26.0124 166.265,-27.3224 169.376,-33.5928"/>
</g>
</g>
</svg>
