<?xml version="1.0" encoding="UTF-8" standalone="no"?>
<!DOCTYPE svg PUBLIC "-//W3C//DTD SVG 1.1//EN"
 "http://www.w3.org/Graphics/SVG/1.1/DTD/svg11.dtd">
<!-- Generated by graphviz version 2.26.3 (20100126.1600)
 -->
<!-- Title: proc~~tokenize~~CalledByGraph Pages: 1 -->
<svg width="392pt" height="556pt"
 viewBox="0.00 0.00 392.00 556.00" xmlns="http://www.w3.org/2000/svg" xmlns:xlink="http://www.w3.org/1999/xlink">
<g id="graph1" class="graph" transform="scale(1 1) rotate(0) translate(4 552)">
<title>proc~~tokenize~~CalledByGraph</title>
<polygon fill="white" stroke="white" points="-4,5 -4,-552 389,-552 389,5 -4,5"/>
<!-- proc~tokenize -->
<g id="node1" class="node"><title>proc~tokenize</title>
<polygon fill="none" stroke="black" points="384,-290 330,-290 330,-264 384,-264 384,-290"/>
<text text-anchor="middle" x="357" y="-274.55" font-family="Helvetica,sans-Serif" font-size="10.50">tokenize</text>
</g>
<!-- proc~check_choices_cla -->
<g id="node2" class="node"><title>proc~check_choices_cla</title>
<a xlink:href="../proc/check_choices_cla.html" xlink:title="check_choices_cla">
<polygon fill="#d9534f" stroke="#d9534f" points="274,-548 172,-548 172,-522 274,-522 274,-548"/>
<text text-anchor="middle" x="223" y="-532.55" font-family="Helvetica,sans-Serif" font-size="10.50" fill="white">check_choices_cla</text>
</a>
</g>
<!-- proc~check_choices_cla&#45;&gt;proc~tokenize -->
<g id="edge4" class="edge"><title>proc~check_choices_cla&#45;&gt;proc~tokenize</title>
<path fill="none" stroke="black" d="M274.058,-522.416C281.509,-518.761 288.506,-514.055 294,-508 322.098,-477.031 344.943,-352.066 353.437,-299.974"/>
<polygon fill="black" stroke="black" points="356.905,-300.452 355.028,-290.025 349.993,-299.346 356.905,-300.452"/>
</g>
<!-- proc~get_args_from_string -->
<g id="node3" class="node"><title>proc~get_args_from_string</title>
<a xlink:href="../proc/get_args_from_string.html" xlink:title="get_args_from_string">
<polygon fill="#d9534f" stroke="#d9534f" points="115,-486 1,-486 1,-460 115,-460 115,-486"/>
<text text-anchor="middle" x="58" y="-470.55" font-family="Helvetica,sans-Serif" font-size="10.50" fill="white">get_args_from_string</text>
</a>
</g>
<!-- proc~get_args_from_string&#45;&gt;proc~tokenize -->
<g id="edge6" class="edge"><title>proc~get_args_from_string&#45;&gt;proc~tokenize</title>
<path fill="none" stroke="black" d="M96.1126,-486.06C146.58,-500.754 235.954,-517.444 294,-475 322.703,-454.012 344.56,-347.927 353.093,-300.257"/>
<polygon fill="black" stroke="black" points="356.568,-300.701 354.841,-290.248 349.672,-299.497 356.568,-300.701"/>
</g>
<!-- none~sanitize_args -->
<g id="node11" class="node"><title>none~sanitize_args</title>
<polygon fill="#d94e8f" stroke="#d94e8f" points="261,-466 185,-466 185,-440 261,-440 261,-466"/>
<text text-anchor="middle" x="223" y="-450.55" font-family="Helvetica,sans-Serif" font-size="10.50" fill="white">sanitize_args</text>
</g>
<!-- proc~get_args_from_string&#45;&gt;none~sanitize_args -->
<g id="edge2" class="edge"><title>proc~get_args_from_string&#45;&gt;none~sanitize_args</title>
<path fill="none" stroke="black" d="M115.709,-466.005C135.077,-463.657 156.454,-461.066 174.996,-458.819"/>
<polygon fill="black" stroke="black" points="175.468,-462.287 184.974,-457.609 174.626,-455.338 175.468,-462.287"/>
</g>
<!-- proc~get_cla_list_varying_r16p -->
<g id="node4" class="node"><title>proc~get_cla_list_varying_r16p</title>
<a xlink:href="../proc/get_cla_list_varying_r16p.html" xlink:title="get_cla_list_varying_R16P">
<polygon fill="#d9534f" stroke="#d9534f" points="292,-422 154,-422 154,-396 292,-396 292,-422"/>
<text text-anchor="middle" x="223" y="-406.55" font-family="Helvetica,sans-Serif" font-size="10.50" fill="white">get_cla_list_varying_R16P</text>
</a>
</g>
<!-- proc~get_cla_list_varying_r16p&#45;&gt;proc~tokenize -->
<g id="edge8" class="edge"><title>proc~get_cla_list_varying_r16p&#45;&gt;proc~tokenize</title>
<path fill="none" stroke="black" d="M279.671,-395.86C284.791,-393.395 289.67,-390.47 294,-387 322.401,-364.241 340.399,-324.982 349.582,-300.039"/>
<polygon fill="black" stroke="black" points="352.985,-300.91 352.983,-290.315 346.378,-298.599 352.985,-300.91"/>
</g>
<!-- proc~get_cla_list_varying_char -->
<g id="node5" class="node"><title>proc~get_cla_list_varying_char</title>
<a xlink:href="../proc/get_cla_list_varying_char.html" xlink:title="get_cla_list_varying_char">
<polygon fill="#d9534f" stroke="#d9534f" points="289,-378 157,-378 157,-352 289,-352 289,-378"/>
<text text-anchor="middle" x="223" y="-362.55" font-family="Helvetica,sans-Serif" font-size="10.50" fill="white">get_cla_list_varying_char</text>
</a>
</g>
<!-- proc~get_cla_list_varying_char&#45;&gt;proc~tokenize -->
<g id="edge10" class="edge"><title>proc~get_cla_list_varying_char&#45;&gt;proc~tokenize</title>
<path fill="none" stroke="black" d="M275.906,-351.938C282.221,-349.423 288.405,-346.466 294,-343 312.912,-331.286 330.034,-312.562 341.638,-298.044"/>
<polygon fill="black" stroke="black" points="344.458,-300.119 347.805,-290.067 338.92,-295.838 344.458,-300.119"/>
</g>
<!-- proc~get_cla_list_varying_r8p -->
<g id="node6" class="node"><title>proc~get_cla_list_varying_r8p</title>
<a xlink:href="../proc/get_cla_list_varying_r8p.html" xlink:title="get_cla_list_varying_R8P">
<polygon fill="#d9534f" stroke="#d9534f" points="289,-334 157,-334 157,-308 289,-308 289,-334"/>
<text text-anchor="middle" x="223" y="-318.55" font-family="Helvetica,sans-Serif" font-size="10.50" fill="white">get_cla_list_varying_R8P</text>
</a>
</g>
<!-- proc~get_cla_list_varying_r8p&#45;&gt;proc~tokenize -->
<g id="edge12" class="edge"><title>proc~get_cla_list_varying_r8p&#45;&gt;proc~tokenize</title>
<path fill="none" stroke="black" d="M265.879,-307.982C275.171,-305.087 284.93,-301.988 294,-299 302.554,-296.182 311.723,-293.047 320.344,-290.047"/>
<polygon fill="black" stroke="black" points="321.502,-293.35 329.783,-286.741 319.188,-286.743 321.502,-293.35"/>
</g>
<!-- proc~get_cla_list_varying_i1p -->
<g id="node7" class="node"><title>proc~get_cla_list_varying_i1p</title>
<a xlink:href="../proc/get_cla_list_varying_i1p.html" xlink:title="get_cla_list_varying_I1P">
<polygon fill="#d9534f" stroke="#d9534f" points="287,-290 159,-290 159,-264 287,-264 287,-290"/>
<text text-anchor="middle" x="223" y="-274.55" font-family="Helvetica,sans-Serif" font-size="10.50" fill="white">get_cla_list_varying_I1P</text>
</a>
</g>
<!-- proc~get_cla_list_varying_i1p&#45;&gt;proc~tokenize -->
<g id="edge14" class="edge"><title>proc~get_cla_list_varying_i1p&#45;&gt;proc~tokenize</title>
<path fill="none" stroke="black" d="M287.253,-277C298.419,-277 309.688,-277 319.815,-277"/>
<polygon fill="black" stroke="black" points="319.903,-280.5 329.903,-277 319.903,-273.5 319.903,-280.5"/>
</g>
<!-- proc~get_cla_list_varying_i2p -->
<g id="node8" class="node"><title>proc~get_cla_list_varying_i2p</title>
<a xlink:href="../proc/get_cla_list_varying_i2p.html" xlink:title="get_cla_list_varying_I2P">
<polygon fill="#d9534f" stroke="#d9534f" points="287,-246 159,-246 159,-220 287,-220 287,-246"/>
<text text-anchor="middle" x="223" y="-230.55" font-family="Helvetica,sans-Serif" font-size="10.50" fill="white">get_cla_list_varying_I2P</text>
</a>
</g>
<!-- proc~get_cla_list_varying_i2p&#45;&gt;proc~tokenize -->
<g id="edge16" class="edge"><title>proc~get_cla_list_varying_i2p&#45;&gt;proc~tokenize</title>
<path fill="none" stroke="black" d="M265.879,-246.018C275.171,-248.913 284.93,-252.012 294,-255 302.554,-257.818 311.723,-260.953 320.344,-263.953"/>
<polygon fill="black" stroke="black" points="319.188,-267.257 329.783,-267.259 321.502,-260.65 319.188,-267.257"/>
</g>
<!-- proc~get_cla_list -->
<g id="node9" class="node"><title>proc~get_cla_list</title>
<a xlink:href="../proc/get_cla_list.html" xlink:title="get_cla_list">
<polygon fill="#d9534f" stroke="#d9534f" points="256,-202 190,-202 190,-176 256,-176 256,-202"/>
<text text-anchor="middle" x="223" y="-186.55" font-family="Helvetica,sans-Serif" font-size="10.50" fill="white">get_cla_list</text>
</a>
</g>
<!-- proc~get_cla_list&#45;&gt;proc~tokenize -->
<g id="edge18" class="edge"><title>proc~get_cla_list&#45;&gt;proc~tokenize</title>
<path fill="none" stroke="black" d="M256.301,-195.583C268.734,-198.977 282.591,-203.933 294,-211 312.912,-222.714 330.034,-241.438 341.638,-255.956"/>
<polygon fill="black" stroke="black" points="338.92,-258.162 347.805,-263.933 344.458,-253.881 338.92,-258.162"/>
</g>
<!-- proc~get_cla_list_varying_r4p -->
<g id="node10" class="node"><title>proc~get_cla_list_varying_r4p</title>
<a xlink:href="../proc/get_cla_list_varying_r4p.html" xlink:title="get_cla_list_varying_R4P">
<polygon fill="#d9534f" stroke="#d9534f" points="289,-158 157,-158 157,-132 289,-132 289,-158"/>
<text text-anchor="middle" x="223" y="-142.55" font-family="Helvetica,sans-Serif" font-size="10.50" fill="white">get_cla_list_varying_R4P</text>
</a>
</g>
<!-- proc~get_cla_list_varying_r4p&#45;&gt;proc~tokenize -->
<g id="edge20" class="edge"><title>proc~get_cla_list_varying_r4p&#45;&gt;proc~tokenize</title>
<path fill="none" stroke="black" d="M279.671,-158.14C284.791,-160.605 289.67,-163.53 294,-167 322.401,-189.759 340.399,-229.018 349.582,-253.961"/>
<polygon fill="black" stroke="black" points="346.378,-255.401 352.983,-263.685 352.985,-253.09 346.378,-255.401"/>
</g>
<!-- none~sanitize_args&#45;&gt;proc~tokenize -->
<g id="edge22" class="edge"><title>none~sanitize_args&#45;&gt;proc~tokenize</title>
<path fill="none" stroke="black" d="M261.197,-447.665C272.851,-444.444 284.959,-439.28 294,-431 332.279,-395.944 347.86,-334.229 353.747,-300.55"/>
<polygon fill="black" stroke="black" points="357.266,-300.71 355.391,-290.282 350.354,-299.603 357.266,-300.71"/>
</g>
<!-- proc~get_cla_list_varying_logical -->
<g id="node12" class="node"><title>proc~get_cla_list_varying_logical</title>
<a xlink:href="../proc/get_cla_list_varying_logical.html" xlink:title="get_cla_list_varying_logical">
<polygon fill="#d9534f" stroke="#d9534f" points="294,-114 152,-114 152,-88 294,-88 294,-114"/>
<text text-anchor="middle" x="223" y="-98.55" font-family="Helvetica,sans-Serif" font-size="10.50" fill="white">get_cla_list_varying_logical</text>
</a>
</g>
<!-- proc~get_cla_list_varying_logical&#45;&gt;proc~tokenize -->
<g id="edge24" class="edge"><title>proc~get_cla_list_varying_logical&#45;&gt;proc~tokenize</title>
<path fill="none" stroke="black" d="M281.211,-114.111C285.843,-116.58 290.193,-119.514 294,-123 332.279,-158.056 347.86,-219.771 353.747,-253.45"/>
<polygon fill="black" stroke="black" points="350.354,-254.397 355.391,-263.718 357.266,-253.29 350.354,-254.397"/>
</g>
<!-- proc~get_cla_list_varying_i8p -->
<g id="node13" class="node"><title>proc~get_cla_list_varying_i8p</title>
<a xlink:href="../proc/get_cla_list_varying_i8p.html" xlink:title="get_cla_list_varying_I8P">
<polygon fill="#d9534f" stroke="#d9534f" points="287,-70 159,-70 159,-44 287,-44 287,-70"/>
<text text-anchor="middle" x="223" y="-54.55" font-family="Helvetica,sans-Serif" font-size="10.50" fill="white">get_cla_list_varying_I8P</text>
</a>
</g>
<!-- proc~get_cla_list_varying_i8p&#45;&gt;proc~tokenize -->
<g id="edge26" class="edge"><title>proc~get_cla_list_varying_i8p&#45;&gt;proc~tokenize</title>
<path fill="none" stroke="black" d="M282.199,-70.1749C286.508,-72.6321 290.519,-75.5457 294,-79 319.126,-103.936 342.755,-207.016 352.414,-253.763"/>
<polygon fill="black" stroke="black" points="349.043,-254.746 354.462,-263.85 355.903,-253.354 349.043,-254.746"/>
</g>
<!-- proc~get_cla_list_varying_i4p -->
<g id="node14" class="node"><title>proc~get_cla_list_varying_i4p</title>
<a xlink:href="../proc/get_cla_list_varying_i4p.html" xlink:title="get_cla_list_varying_I4P">
<polygon fill="#d9534f" stroke="#d9534f" points="287,-26 159,-26 159,-1.24345e-14 287,-3.55271e-15 287,-26"/>
<text text-anchor="middle" x="223" y="-10.55" font-family="Helvetica,sans-Serif" font-size="10.50" fill="white">get_cla_list_varying_I4P</text>
</a>
</g>
<!-- proc~get_cla_list_varying_i4p&#45;&gt;proc~tokenize -->
<g id="edge28" class="edge"><title>proc~get_cla_list_varying_i4p&#45;&gt;proc~tokenize</title>
<path fill="none" stroke="black" d="M282.739,-26.1739C286.874,-28.6332 290.702,-31.5474 294,-35 324.369,-66.793 346.12,-199.767 353.879,-253.911"/>
<polygon fill="black" stroke="black" points="350.428,-254.503 355.282,-263.921 357.36,-253.532 350.428,-254.503"/>
</g>
</g>
</svg>
