<?xml version="1.0" encoding="UTF-8" standalone="no"?>
<!DOCTYPE svg PUBLIC "-//W3C//DTD SVG 1.1//EN"
 "http://www.w3.org/Graphics/SVG/1.1/DTD/svg11.dtd">
<!-- Generated by graphviz version 2.26.3 (20100126.1600)
 -->
<!-- Title: proc~~get_cla_list_varying_logical~~CallsGraph Pages: 1 -->
<svg width="240pt" height="122pt"
 viewBox="0.00 0.00 240.00 122.00" xmlns="http://www.w3.org/2000/svg" xmlns:xlink="http://www.w3.org/1999/xlink">
<g id="graph1" class="graph" transform="scale(1 1) rotate(0) translate(4 118)">
<title>proc~~get_cla_list_varying_logical~~CallsGraph</title>
<polygon fill="white" stroke="white" points="-4,5 -4,-118 237,-118 237,5 -4,5"/>
<!-- proc~get_cla_list_varying_logical -->
<g id="node1" class="node"><title>proc~get_cla_list_varying_logical</title>
<polygon fill="none" stroke="black" points="142,-70 5.68434e-14,-70 0,-44 142,-44 142,-70"/>
<text text-anchor="middle" x="71" y="-54.55" font-family="Helvetica,sans-Serif" font-size="10.50">get_cla_list_varying_logical</text>
</g>
<!-- valsd -->
<g id="node2" class="node"><title>valsd</title>
<polygon fill="#777777" stroke="#777777" points="232,-114 178,-114 178,-88 232,-88 232,-114"/>
<text text-anchor="middle" x="205" y="-98.55" font-family="Helvetica,sans-Serif" font-size="10.50" fill="white">valsd</text>
</g>
<!-- proc~get_cla_list_varying_logical&#45;&gt;valsd -->
<g id="edge2" class="edge"><title>proc~get_cla_list_varying_logical&#45;&gt;valsd</title>
<path fill="none" stroke="black" d="M110.842,-70.0823C128.899,-76.0116 150.124,-82.9812 167.848,-88.8007"/>
<polygon fill="black" stroke="black" points="167.235,-92.2833 177.828,-92.0777 169.419,-85.6326 167.235,-92.2833"/>
</g>
<!-- proc~tokenize -->
<g id="node3" class="node"><title>proc~tokenize</title>
<a xlink:href="../proc/tokenize.html" xlink:title="tokenize">
<polygon fill="#d9534f" stroke="#d9534f" points="232,-70 178,-70 178,-44 232,-44 232,-70"/>
<text text-anchor="middle" x="205" y="-54.55" font-family="Helvetica,sans-Serif" font-size="10.50" fill="white">tokenize</text>
</a>
</g>
<!-- proc~get_cla_list_varying_logical&#45;&gt;proc~tokenize -->
<g id="edge4" class="edge"><title>proc~get_cla_list_varying_logical&#45;&gt;proc~tokenize</title>
<path fill="none" stroke="black" d="M142.316,-57C151.094,-57 159.774,-57 167.748,-57"/>
<polygon fill="black" stroke="black" points="167.773,-60.5001 177.773,-57 167.773,-53.5001 167.773,-60.5001"/>
</g>
<!-- valsv -->
<g id="node4" class="node"><title>valsv</title>
<polygon fill="#777777" stroke="#777777" points="232,-26 178,-26 178,-1.24345e-14 232,-3.55271e-15 232,-26"/>
<text text-anchor="middle" x="205" y="-10.55" font-family="Helvetica,sans-Serif" font-size="10.50" fill="white">valsv</text>
</g>
<!-- proc~get_cla_list_varying_logical&#45;&gt;valsv -->
<g id="edge6" class="edge"><title>proc~get_cla_list_varying_logical&#45;&gt;valsv</title>
<path fill="none" stroke="black" d="M110.842,-43.9177C128.899,-37.9884 150.124,-31.0188 167.848,-25.1993"/>
<polygon fill="black" stroke="black" points="169.419,-28.3674 177.828,-21.9223 167.235,-21.7167 169.419,-28.3674"/>
</g>
</g>
</svg>
