<?xml version="1.0" encoding="UTF-8" standalone="no"?>
<!DOCTYPE svg PUBLIC "-//W3C//DTD SVG 1.1//EN"
 "http://www.w3.org/Graphics/SVG/1.1/DTD/svg11.dtd">
<!-- Generated by graphviz version 2.26.3 (20100126.1600)
 -->
<!-- Title: proc~~get_cla_list~~CallsGraph Pages: 1 -->
<svg width="164pt" height="166pt"
 viewBox="0.00 0.00 164.00 166.00" xmlns="http://www.w3.org/2000/svg" xmlns:xlink="http://www.w3.org/1999/xlink">
<g id="graph1" class="graph" transform="scale(1 1) rotate(0) translate(4 162)">
<title>proc~~get_cla_list~~CallsGraph</title>
<polygon fill="white" stroke="white" points="-4,5 -4,-162 161,-162 161,5 -4,5"/>
<!-- proc~get_cla_list -->
<g id="node1" class="node"><title>proc~get_cla_list</title>
<polygon fill="none" stroke="black" points="66,-92 2.84217e-14,-92 0,-66 66,-66 66,-92"/>
<text text-anchor="middle" x="33" y="-76.55" font-family="Helvetica,sans-Serif" font-size="10.50">get_cla_list</text>
</g>
<!-- valsd -->
<g id="node2" class="node"><title>valsd</title>
<polygon fill="#777777" stroke="#777777" points="156,-158 102,-158 102,-132 156,-132 156,-158"/>
<text text-anchor="middle" x="129" y="-142.55" font-family="Helvetica,sans-Serif" font-size="10.50" fill="white">valsd</text>
</g>
<!-- proc~get_cla_list&#45;&gt;valsd -->
<g id="edge2" class="edge"><title>proc~get_cla_list&#45;&gt;valsd</title>
<path fill="none" stroke="black" d="M51.9665,-92.0395C66.1669,-101.802 85.7978,-115.298 101.688,-126.223"/>
<polygon fill="black" stroke="black" points="99.8496,-129.206 110.073,-131.988 103.815,-123.438 99.8496,-129.206"/>
</g>
<!-- valsv -->
<g id="node3" class="node"><title>valsv</title>
<polygon fill="#777777" stroke="#777777" points="156,-114 102,-114 102,-88 156,-88 156,-114"/>
<text text-anchor="middle" x="129" y="-98.55" font-family="Helvetica,sans-Serif" font-size="10.50" fill="white">valsv</text>
</g>
<!-- proc~get_cla_list&#45;&gt;valsv -->
<g id="edge4" class="edge"><title>proc~get_cla_list&#45;&gt;valsv</title>
<path fill="none" stroke="black" d="M66.0378,-86.5712C74.4581,-88.5008 83.5609,-90.5869 92.1582,-92.5571"/>
<polygon fill="black" stroke="black" points="91.418,-95.9781 101.947,-94.8004 92.9817,-89.155 91.418,-95.9781"/>
</g>
<!-- proc~tokenize -->
<g id="node4" class="node"><title>proc~tokenize</title>
<a xlink:href="../proc/tokenize.html" xlink:title="tokenize">
<polygon fill="#d9534f" stroke="#d9534f" points="156,-70 102,-70 102,-44 156,-44 156,-70"/>
<text text-anchor="middle" x="129" y="-54.55" font-family="Helvetica,sans-Serif" font-size="10.50" fill="white">tokenize</text>
</a>
</g>
<!-- proc~get_cla_list&#45;&gt;proc~tokenize -->
<g id="edge6" class="edge"><title>proc~get_cla_list&#45;&gt;proc~tokenize</title>
<path fill="none" stroke="black" d="M66.0378,-71.4288C74.4581,-69.4992 83.5609,-67.4131 92.1582,-65.4429"/>
<polygon fill="black" stroke="black" points="92.9817,-68.845 101.947,-63.1996 91.418,-62.0219 92.9817,-68.845"/>
</g>
<!-- cton -->
<g id="node5" class="node"><title>cton</title>
<polygon fill="#777777" stroke="#777777" points="156,-26 102,-26 102,-1.24345e-14 156,-3.55271e-15 156,-26"/>
<text text-anchor="middle" x="129" y="-10.55" font-family="Helvetica,sans-Serif" font-size="10.50" fill="white">cton</text>
</g>
<!-- proc~get_cla_list&#45;&gt;cton -->
<g id="edge8" class="edge"><title>proc~get_cla_list&#45;&gt;cton</title>
<path fill="none" stroke="black" d="M51.9665,-65.9605C66.1669,-56.1977 85.7978,-42.7015 101.688,-31.777"/>
<polygon fill="black" stroke="black" points="103.815,-34.5619 110.073,-26.0124 99.8496,-28.7936 103.815,-34.5619"/>
</g>
</g>
</svg>
