<?xml version="1.0" encoding="UTF-8" standalone="no"?>
<!DOCTYPE svg PUBLIC "-//W3C//DTD SVG 1.1//EN"
 "http://www.w3.org/Graphics/SVG/1.1/DTD/svg11.dtd">
<!-- Generated by graphviz version 2.26.3 (20100126.1600)
 -->
<!-- Title: proc~~signature_cla~~CallsGraph Pages: 1 -->
<svg width="174pt" height="78pt"
 viewBox="0.00 0.00 174.00 78.00" xmlns="http://www.w3.org/2000/svg" xmlns:xlink="http://www.w3.org/1999/xlink">
<g id="graph1" class="graph" transform="scale(1 1) rotate(0) translate(4 74)">
<title>proc~~signature_cla~~CallsGraph</title>
<polygon fill="white" stroke="white" points="-4,5 -4,-74 171,-74 171,5 -4,5"/>
<!-- proc~signature_cla -->
<g id="node1" class="node"><title>proc~signature_cla</title>
<polygon fill="none" stroke="black" points="76,-48 3.55271e-14,-48 0,-22 76,-22 76,-48"/>
<text text-anchor="middle" x="38" y="-32.55" font-family="Helvetica,sans-Serif" font-size="10.50">signature_cla</text>
</g>
<!-- str -->
<g id="node2" class="node"><title>str</title>
<polygon fill="#777777" stroke="#777777" points="166,-70 112,-70 112,-44 166,-44 166,-70"/>
<text text-anchor="middle" x="139" y="-54.55" font-family="Helvetica,sans-Serif" font-size="10.50" fill="white">str</text>
</g>
<!-- proc~signature_cla&#45;&gt;str -->
<g id="edge2" class="edge"><title>proc~signature_cla&#45;&gt;str</title>
<path fill="none" stroke="black" d="M76.1838,-43.3173C84.6032,-45.1512 93.5092,-47.0911 101.886,-48.9157"/>
<polygon fill="black" stroke="black" points="101.256,-52.3605 111.772,-51.0691 102.746,-45.5209 101.256,-52.3605"/>
</g>
<!-- cton -->
<g id="node3" class="node"><title>cton</title>
<polygon fill="#777777" stroke="#777777" points="166,-26 112,-26 112,-1.24345e-14 166,-3.55271e-15 166,-26"/>
<text text-anchor="middle" x="139" y="-10.55" font-family="Helvetica,sans-Serif" font-size="10.50" fill="white">cton</text>
</g>
<!-- proc~signature_cla&#45;&gt;cton -->
<g id="edge4" class="edge"><title>proc~signature_cla&#45;&gt;cton</title>
<path fill="none" stroke="black" d="M76.1838,-26.6827C84.6032,-24.8488 93.5092,-22.9089 101.886,-21.0843"/>
<polygon fill="black" stroke="black" points="102.746,-24.4791 111.772,-18.9309 101.256,-17.6395 102.746,-24.4791"/>
</g>
</g>
</svg>
