<?xml version="1.0" encoding="UTF-8" standalone="no"?>
<!DOCTYPE svg PUBLIC "-//W3C//DTD SVG 1.1//EN"
 "http://www.w3.org/Graphics/SVG/1.1/DTD/svg11.dtd">
<!-- Generated by graphviz version 2.26.3 (20100126.1600)
 -->
<!-- Title: module~~graph~~ModuleGraph Pages: 1 -->
<svg width="472pt" height="166pt"
 viewBox="0.00 0.00 472.00 166.00" xmlns="http://www.w3.org/2000/svg" xmlns:xlink="http://www.w3.org/1999/xlink">
<g id="graph1" class="graph" transform="scale(1 1) rotate(0) translate(4 162)">
<title>module~~graph~~ModuleGraph</title>
<polygon fill="white" stroke="white" points="-4,5 -4,-162 469,-162 469,5 -4,5"/>
<!-- module~data_type_command_line_interface -->
<g id="node1" class="node"><title>module~data_type_command_line_interface</title>
<a xlink:href="../module/data_type_command_line_interface.html" xlink:title="Data_Type_Command_Line_Interface">
<polygon fill="#337ab7" stroke="#337ab7" points="319,-71 125,-71 125,-45 319,-45 319,-71"/>
<text text-anchor="middle" x="222" y="-55.55" font-family="Helvetica,sans-Serif" font-size="10.50" fill="white">Data_Type_Command_Line_Interface</text>
</a>
</g>
<!-- program~test_nested -->
<g id="node2" class="node"><title>program~test_nested</title>
<a xlink:href="../program/test_nested.html" xlink:title="test_nested">
<polygon fill="#f0ad4e" stroke="#f0ad4e" points="444,-70 376,-70 376,-44 444,-44 444,-70"/>
<text text-anchor="middle" x="410" y="-54.55" font-family="Helvetica,sans-Serif" font-size="10.50" fill="white">test_nested</text>
</a>
</g>
<!-- module~data_type_command_line_interface&#45;&gt;program~test_nested -->
<g id="edge8" class="edge"><title>module~data_type_command_line_interface&#45;&gt;program~test_nested</title>
<path fill="none" stroke="black" stroke-dasharray="5,2" d="M319.579,-57.481C335.681,-57.3953 351.643,-57.3104 365.571,-57.2363"/>
<polygon fill="black" stroke="black" points="365.812,-60.7352 375.794,-57.1819 365.775,-53.7353 365.812,-60.7352"/>
</g>
<!-- program~test_basic -->
<g id="node3" class="node"><title>program~test_basic</title>
<a xlink:href="../program/test_basic.html" xlink:title="test_basic">
<polygon fill="#f0ad4e" stroke="#f0ad4e" points="440,-158 380,-158 380,-132 440,-132 440,-158"/>
<text text-anchor="middle" x="410" y="-142.55" font-family="Helvetica,sans-Serif" font-size="10.50" fill="white">test_basic</text>
</a>
</g>
<!-- module~data_type_command_line_interface&#45;&gt;program~test_basic -->
<g id="edge12" class="edge"><title>module~data_type_command_line_interface&#45;&gt;program~test_basic</title>
<path fill="none" stroke="black" stroke-dasharray="5,2" d="M283.315,-71.0373C295.941,-75.1047 308.791,-80.3336 320,-87 339.448,-98.5666 337.149,-110.484 356,-123 360.317,-125.866 365.066,-128.466 369.903,-130.791"/>
<polygon fill="black" stroke="black" points="368.66,-134.068 379.22,-134.921 371.497,-127.669 368.66,-134.068"/>
</g>
<!-- program~test_string -->
<g id="node4" class="node"><title>program~test_string</title>
<a xlink:href="../program/test_string.html" xlink:title="test_string">
<polygon fill="#f0ad4e" stroke="#f0ad4e" points="441,-114 379,-114 379,-88 441,-88 441,-114"/>
<text text-anchor="middle" x="410" y="-98.55" font-family="Helvetica,sans-Serif" font-size="10.50" fill="white">test_string</text>
</a>
</g>
<!-- module~data_type_command_line_interface&#45;&gt;program~test_string -->
<g id="edge16" class="edge"><title>module~data_type_command_line_interface&#45;&gt;program~test_string</title>
<path fill="none" stroke="black" stroke-dasharray="5,2" d="M278.916,-71.0181C307.92,-77.652 342.534,-85.569 368.908,-91.6012"/>
<polygon fill="black" stroke="black" points="368.414,-95.0786 378.942,-93.8964 369.975,-88.2548 368.414,-95.0786"/>
</g>
<!-- program~test_choices_logical -->
<g id="node5" class="node"><title>program~test_choices_logical</title>
<a xlink:href="../program/test_choices_logical.html" xlink:title="test_choices_logical">
<polygon fill="#f0ad4e" stroke="#f0ad4e" points="464,-26 356,-26 356,-1.24345e-14 464,-3.55271e-15 464,-26"/>
<text text-anchor="middle" x="410" y="-10.55" font-family="Helvetica,sans-Serif" font-size="10.50" fill="white">test_choices_logical</text>
</a>
</g>
<!-- module~data_type_command_line_interface&#45;&gt;program~test_choices_logical -->
<g id="edge20" class="edge"><title>module~data_type_command_line_interface&#45;&gt;program~test_choices_logical</title>
<path fill="none" stroke="black" stroke-dasharray="5,2" d="M276.377,-44.9841C298.104,-39.7835 323.288,-33.7555 345.897,-28.3439"/>
<polygon fill="black" stroke="black" points="346.834,-31.7184 355.745,-25.9866 345.205,-24.9107 346.834,-31.7184"/>
</g>
<!-- iso_fortran_env -->
<g id="node6" class="node"><title>iso_fortran_env</title>
<a xlink:href="https://gcc.gnu.org/onlinedocs/gfortran/ISO_005fFORTRAN_005fENV.html" xlink:title="iso_fortran_env">
<polygon fill="#337ab7" stroke="#337ab7" points="87,-49 1,-49 1,-23 87,-23 87,-49"/>
<text text-anchor="middle" x="44" y="-33.55" font-family="Helvetica,sans-Serif" font-size="10.50" fill="white">iso_fortran_env</text>
</a>
</g>
<!-- iso_fortran_env&#45;&gt;module~data_type_command_line_interface -->
<g id="edge2" class="edge"><title>iso_fortran_env&#45;&gt;module~data_type_command_line_interface</title>
<path fill="none" stroke="black" stroke-dasharray="5,2" d="M87.5437,-41.3818C95.858,-42.4094 104.896,-43.5264 114.222,-44.6791"/>
<polygon fill="black" stroke="black" points="114.08,-48.1881 124.434,-45.9413 114.939,-41.241 114.08,-48.1881"/>
</g>
<!-- IR_Precision -->
<g id="node8" class="node"><title>IR_Precision</title>
<polygon fill="#337ab7" stroke="#337ab7" points="80,-93 8,-93 8,-67 80,-67 80,-93"/>
<text text-anchor="middle" x="44" y="-77.55" font-family="Helvetica,sans-Serif" font-size="10.50" fill="white">IR_Precision</text>
</g>
<!-- IR_Precision&#45;&gt;module~data_type_command_line_interface -->
<g id="edge4" class="edge"><title>IR_Precision&#45;&gt;module~data_type_command_line_interface</title>
<path fill="none" stroke="black" stroke-dasharray="5,2" d="M80.8817,-75.4416C90.9057,-74.2027 102.292,-72.7954 114.145,-71.3304"/>
<polygon fill="black" stroke="black" points="114.697,-74.7889 124.192,-70.0886 113.839,-67.8417 114.697,-74.7889"/>
</g>
<!-- IR_Precision&#45;&gt;program~test_nested -->
<g id="edge6" class="edge"><title>IR_Precision&#45;&gt;program~test_nested</title>
<path fill="none" stroke="black" stroke-dasharray="5,2" d="M80.7064,-85.6078C116.619,-90.7917 172.92,-98.1148 222,-101"/>
<path fill="none" stroke="black" stroke-dasharray="5,2" d="M222,-101C273.76,-104.043 331.605,-87.3455 369.286,-73.6517"/>
<polygon fill="black" stroke="black" points="370.741,-76.8445 378.886,-70.0687 368.294,-70.2864 370.741,-76.8445"/>
</g>
<!-- IR_Precision&#45;&gt;program~test_basic -->
<g id="edge10" class="edge"><title>IR_Precision&#45;&gt;program~test_basic</title>
<path fill="none" stroke="black" stroke-dasharray="5,2" d="M222,-101C273.914,-104.052 331.949,-119.563 369.621,-131.313"/>
<polygon fill="black" stroke="black" points="368.624,-134.668 379.214,-134.361 370.743,-127.997 368.624,-134.668"/>
</g>
<!-- IR_Precision&#45;&gt;program~test_string -->
<g id="edge14" class="edge"><title>IR_Precision&#45;&gt;program~test_string</title>
<path fill="none" stroke="black" stroke-dasharray="5,2" d="M222,-101C272.333,-103.959 330.376,-103.347 368.497,-102.396"/>
<polygon fill="black" stroke="black" points="368.796,-105.889 378.698,-102.122 368.608,-98.8919 368.796,-105.889"/>
</g>
<!-- IR_Precision&#45;&gt;program~test_choices_logical -->
<g id="edge18" class="edge"><title>IR_Precision&#45;&gt;program~test_choices_logical</title>
<path fill="none" stroke="black" stroke-dasharray="5,2" d="M71.181,-66.8617C76.7882,-64.0253 82.6217,-60.9809 88,-58 104.401,-48.91 106.168,-41.7987 124,-36 197.289,-12.1677 286.45,-8.7408 345.531,-9.7599"/>
<polygon fill="black" stroke="black" points="345.763,-13.2658 355.838,-9.98809 345.918,-6.26751 345.763,-13.2658"/>
</g>
</g>
</svg>
