<?xml version="1.0" encoding="UTF-8" standalone="no"?>
<!DOCTYPE svg PUBLIC "-//W3C//DTD SVG 1.1//EN"
 "http://www.w3.org/Graphics/SVG/1.1/DTD/svg11.dtd">
<!-- Generated by graphviz version 2.26.3 (20100126.1600)
 -->
<!-- Title: module~~data_type_command_line_interface~~UsedByGraph Pages: 1 -->
<svg width="348pt" height="166pt"
 viewBox="0.00 0.00 348.00 166.00" xmlns="http://www.w3.org/2000/svg" xmlns:xlink="http://www.w3.org/1999/xlink">
<g id="graph1" class="graph" transform="scale(1 1) rotate(0) translate(4 162)">
<title>module~~data_type_command_line_interface~~UsedByGraph</title>
<polygon fill="white" stroke="white" points="-4,5 -4,-162 345,-162 345,5 -4,5"/>
<!-- module~data_type_command_line_interface -->
<g id="node1" class="node"><title>module~data_type_command_line_interface</title>
<polygon fill="none" stroke="black" points="195,-92 1,-92 1,-66 195,-66 195,-92"/>
<text text-anchor="middle" x="98" y="-76.55" font-family="Helvetica,sans-Serif" font-size="10.50">Data_Type_Command_Line_Interface</text>
</g>
<!-- program~test_string -->
<g id="node2" class="node"><title>program~test_string</title>
<a xlink:href="../program/test_string.html" xlink:title="test_string">
<polygon fill="#f0ad4e" stroke="#f0ad4e" points="317,-158 255,-158 255,-132 317,-132 317,-158"/>
<text text-anchor="middle" x="286" y="-142.55" font-family="Helvetica,sans-Serif" font-size="10.50" fill="white">test_string</text>
</a>
</g>
<!-- module~data_type_command_line_interface&#45;&gt;program~test_string -->
<g id="edge2" class="edge"><title>module~data_type_command_line_interface&#45;&gt;program~test_string</title>
<path fill="none" stroke="black" stroke-dasharray="5,2" d="M135.143,-92.0395C166.854,-103.172 212.395,-119.16 245.132,-130.653"/>
<polygon fill="black" stroke="black" points="244.257,-134.055 254.852,-134.065 246.576,-127.45 244.257,-134.055"/>
</g>
<!-- program~test_basic -->
<g id="node3" class="node"><title>program~test_basic</title>
<a xlink:href="../program/test_basic.html" xlink:title="test_basic">
<polygon fill="#f0ad4e" stroke="#f0ad4e" points="316,-114 256,-114 256,-88 316,-88 316,-114"/>
<text text-anchor="middle" x="286" y="-98.55" font-family="Helvetica,sans-Serif" font-size="10.50" fill="white">test_basic</text>
</a>
</g>
<!-- module~data_type_command_line_interface&#45;&gt;program~test_basic -->
<g id="edge4" class="edge"><title>module~data_type_command_line_interface&#45;&gt;program~test_basic</title>
<path fill="none" stroke="black" stroke-dasharray="5,2" d="M195.579,-90.4189C212.99,-92.4563 230.237,-94.4746 244.926,-96.1935"/>
<polygon fill="black" stroke="black" points="244.797,-99.7021 255.136,-97.3882 245.61,-92.7496 244.797,-99.7021"/>
</g>
<!-- program~test_choices_logical -->
<g id="node4" class="node"><title>program~test_choices_logical</title>
<a xlink:href="../program/test_choices_logical.html" xlink:title="test_choices_logical">
<polygon fill="#f0ad4e" stroke="#f0ad4e" points="340,-70 232,-70 232,-44 340,-44 340,-70"/>
<text text-anchor="middle" x="286" y="-54.55" font-family="Helvetica,sans-Serif" font-size="10.50" fill="white">test_choices_logical</text>
</a>
</g>
<!-- module~data_type_command_line_interface&#45;&gt;program~test_choices_logical -->
<g id="edge6" class="edge"><title>module~data_type_command_line_interface&#45;&gt;program~test_choices_logical</title>
<path fill="none" stroke="black" stroke-dasharray="5,2" d="M195.579,-67.5811C204.478,-66.5398 213.334,-65.5034 221.828,-64.5095"/>
<polygon fill="black" stroke="black" points="222.462,-67.9593 231.987,-63.3207 221.648,-61.0068 222.462,-67.9593"/>
</g>
<!-- program~test_nested -->
<g id="node5" class="node"><title>program~test_nested</title>
<a xlink:href="../program/test_nested.html" xlink:title="test_nested">
<polygon fill="#f0ad4e" stroke="#f0ad4e" points="320,-26 252,-26 252,-1.24345e-14 320,-3.55271e-15 320,-26"/>
<text text-anchor="middle" x="286" y="-10.55" font-family="Helvetica,sans-Serif" font-size="10.50" fill="white">test_nested</text>
</a>
</g>
<!-- module~data_type_command_line_interface&#45;&gt;program~test_nested -->
<g id="edge8" class="edge"><title>module~data_type_command_line_interface&#45;&gt;program~test_nested</title>
<path fill="none" stroke="black" stroke-dasharray="5,2" d="M135.143,-65.9605C165.885,-55.1682 209.622,-39.8134 242.094,-28.4139"/>
<polygon fill="black" stroke="black" points="243.506,-31.6274 251.783,-25.0125 241.188,-25.0226 243.506,-31.6274"/>
</g>
</g>
</svg>
