<?xml version="1.0" encoding="UTF-8" standalone="no"?>
<!DOCTYPE svg PUBLIC "-//W3C//DTD SVG 1.1//EN"
 "http://www.w3.org/Graphics/SVG/1.1/DTD/svg11.dtd">
<!-- Generated by graphviz version 2.26.3 (20100126.1600)
 -->
<!-- Title: module~~data_type_command_line_interface~~UsesGraph Pages: 1 -->
<svg width="328pt" height="78pt"
 viewBox="0.00 0.00 328.00 78.00" xmlns="http://www.w3.org/2000/svg" xmlns:xlink="http://www.w3.org/1999/xlink">
<g id="graph1" class="graph" transform="scale(1 1) rotate(0) translate(4 74)">
<title>module~~data_type_command_line_interface~~UsesGraph</title>
<polygon fill="white" stroke="white" points="-4,5 -4,-74 325,-74 325,5 -4,5"/>
<!-- module~data_type_command_line_interface -->
<g id="node1" class="node"><title>module~data_type_command_line_interface</title>
<polygon fill="none" stroke="black" points="319,-48 125,-48 125,-22 319,-22 319,-48"/>
<text text-anchor="middle" x="222" y="-32.55" font-family="Helvetica,sans-Serif" font-size="10.50">Data_Type_Command_Line_Interface</text>
</g>
<!-- iso_fortran_env -->
<g id="node2" class="node"><title>iso_fortran_env</title>
<a xlink:href="https://gcc.gnu.org/onlinedocs/gfortran/ISO_005fFORTRAN_005fENV.html" xlink:title="iso_fortran_env">
<polygon fill="#337ab7" stroke="#337ab7" points="87,-70 1,-70 1,-44 87,-44 87,-70"/>
<text text-anchor="middle" x="44" y="-54.55" font-family="Helvetica,sans-Serif" font-size="10.50" fill="white">iso_fortran_env</text>
</a>
</g>
<!-- iso_fortran_env&#45;&gt;module~data_type_command_line_interface -->
<g id="edge2" class="edge"><title>iso_fortran_env&#45;&gt;module~data_type_command_line_interface</title>
<path fill="none" stroke="black" stroke-dasharray="5,2" d="M87.5437,-51.6182C95.858,-50.5906 104.896,-49.4736 114.222,-48.3209"/>
<polygon fill="black" stroke="black" points="114.939,-51.759 124.434,-47.0587 114.08,-44.8119 114.939,-51.759"/>
</g>
<!-- IR_Precision -->
<g id="node3" class="node"><title>IR_Precision</title>
<polygon fill="#337ab7" stroke="#337ab7" points="80,-26 8,-26 8,-1.24345e-14 80,-3.55271e-15 80,-26"/>
<text text-anchor="middle" x="44" y="-10.55" font-family="Helvetica,sans-Serif" font-size="10.50" fill="white">IR_Precision</text>
</g>
<!-- IR_Precision&#45;&gt;module~data_type_command_line_interface -->
<g id="edge4" class="edge"><title>IR_Precision&#45;&gt;module~data_type_command_line_interface</title>
<path fill="none" stroke="black" stroke-dasharray="5,2" d="M80.8817,-17.5584C90.9057,-18.7973 102.292,-20.2046 114.145,-21.6696"/>
<polygon fill="black" stroke="black" points="113.839,-25.1583 124.192,-22.9114 114.697,-18.2111 113.839,-25.1583"/>
</g>
</g>
</svg>
