<?xml version="1.0" encoding="UTF-8" standalone="no"?>
<!DOCTYPE svg PUBLIC "-//W3C//DTD SVG 1.1//EN"
 "http://www.w3.org/Graphics/SVG/1.1/DTD/svg11.dtd">
<!-- Generated by graphviz version 2.26.3 (20100126.1600)
 -->
<!-- Title: proc~~save_man_page~~CallsGraph Pages: 1 -->
<svg width="190pt" height="34pt"
 viewBox="0.00 0.00 190.00 34.00" xmlns="http://www.w3.org/2000/svg" xmlns:xlink="http://www.w3.org/1999/xlink">
<g id="graph1" class="graph" transform="scale(1 1) rotate(0) translate(4 30)">
<title>proc~~save_man_page~~CallsGraph</title>
<polygon fill="white" stroke="white" points="-4,5 -4,-30 187,-30 187,5 -4,5"/>
<!-- proc~save_man_page -->
<g id="node1" class="node"><title>proc~save_man_page</title>
<polygon fill="none" stroke="black" points="92,-26 4.26326e-14,-26 0,-1.24345e-14 92,-3.55271e-15 92,-26"/>
<text text-anchor="middle" x="46" y="-10.55" font-family="Helvetica,sans-Serif" font-size="10.50">save_man_page</text>
</g>
<!-- strz -->
<g id="node2" class="node"><title>strz</title>
<polygon fill="#777777" stroke="#777777" points="182,-26 128,-26 128,-1.24345e-14 182,-3.55271e-15 182,-26"/>
<text text-anchor="middle" x="155" y="-10.55" font-family="Helvetica,sans-Serif" font-size="10.50" fill="white">strz</text>
</g>
<!-- proc~save_man_page&#45;&gt;strz -->
<g id="edge2" class="edge"><title>proc~save_man_page&#45;&gt;strz</title>
<path fill="none" stroke="black" d="M92.2258,-13C100.793,-13 109.64,-13 117.893,-13"/>
<polygon fill="black" stroke="black" points="117.962,-16.5001 127.962,-13 117.962,-9.5001 117.962,-16.5001"/>
</g>
</g>
</svg>
