<?xml version="1.0" encoding="UTF-8" standalone="no"?>
<!DOCTYPE svg PUBLIC "-//W3C//DTD SVG 1.1//EN"
 "http://www.w3.org/Graphics/SVG/1.1/DTD/svg11.dtd">
<!-- Generated by graphviz version 2.26.3 (20100126.1600)
 -->
<!-- Title: proc~~check_choices_cla~~CallsGraph Pages: 1 -->
<svg width="200pt" height="122pt"
 viewBox="0.00 0.00 200.00 122.00" xmlns="http://www.w3.org/2000/svg" xmlns:xlink="http://www.w3.org/1999/xlink">
<g id="graph1" class="graph" transform="scale(1 1) rotate(0) translate(4 118)">
<title>proc~~check_choices_cla~~CallsGraph</title>
<polygon fill="white" stroke="white" points="-4,5 -4,-118 197,-118 197,5 -4,5"/>
<!-- proc~check_choices_cla -->
<g id="node1" class="node"><title>proc~check_choices_cla</title>
<polygon fill="none" stroke="black" points="102,-70 4.9738e-14,-70 0,-44 102,-44 102,-70"/>
<text text-anchor="middle" x="51" y="-54.55" font-family="Helvetica,sans-Serif" font-size="10.50">check_choices_cla</text>
</g>
<!-- str -->
<g id="node2" class="node"><title>str</title>
<polygon fill="#777777" stroke="#777777" points="192,-114 138,-114 138,-88 192,-88 192,-114"/>
<text text-anchor="middle" x="165" y="-98.55" font-family="Helvetica,sans-Serif" font-size="10.50" fill="white">str</text>
</g>
<!-- proc~check_choices_cla&#45;&gt;str -->
<g id="edge2" class="edge"><title>proc~check_choices_cla&#45;&gt;str</title>
<path fill="none" stroke="black" d="M84.8951,-70.0823C98.6534,-75.3925 114.574,-81.5372 128.579,-86.9428"/>
<polygon fill="black" stroke="black" points="127.33,-90.2122 137.919,-90.5478 129.85,-83.6817 127.33,-90.2122"/>
</g>
<!-- proc~tokenize -->
<g id="node3" class="node"><title>proc~tokenize</title>
<a xlink:href="../proc/tokenize.html" xlink:title="tokenize">
<polygon fill="#d9534f" stroke="#d9534f" points="192,-70 138,-70 138,-44 192,-44 192,-70"/>
<text text-anchor="middle" x="165" y="-54.55" font-family="Helvetica,sans-Serif" font-size="10.50" fill="white">tokenize</text>
</a>
</g>
<!-- proc~check_choices_cla&#45;&gt;proc~tokenize -->
<g id="edge4" class="edge"><title>proc~check_choices_cla&#45;&gt;proc~tokenize</title>
<path fill="none" stroke="black" d="M102.331,-57C110.878,-57 119.597,-57 127.708,-57"/>
<polygon fill="black" stroke="black" points="127.957,-60.5001 137.956,-57 127.956,-53.5001 127.957,-60.5001"/>
</g>
<!-- cton -->
<g id="node4" class="node"><title>cton</title>
<polygon fill="#777777" stroke="#777777" points="192,-26 138,-26 138,-1.24345e-14 192,-3.55271e-15 192,-26"/>
<text text-anchor="middle" x="165" y="-10.55" font-family="Helvetica,sans-Serif" font-size="10.50" fill="white">cton</text>
</g>
<!-- proc~check_choices_cla&#45;&gt;cton -->
<g id="edge6" class="edge"><title>proc~check_choices_cla&#45;&gt;cton</title>
<path fill="none" stroke="black" d="M84.8951,-43.9177C98.6534,-38.6075 114.574,-32.4628 128.579,-27.0572"/>
<polygon fill="black" stroke="black" points="129.85,-30.3183 137.919,-23.4522 127.33,-23.7878 129.85,-30.3183"/>
</g>
</g>
</svg>
