<?xml version="1.0" encoding="UTF-8" standalone="no"?>
<!DOCTYPE svg PUBLIC "-//W3C//DTD SVG 1.1//EN"
 "http://www.w3.org/Graphics/SVG/1.1/DTD/svg11.dtd">
<!-- Generated by graphviz version 2.26.3 (20100126.1600)
 -->
<!-- Title: proc~~parse_clasg~~CallsGraph Pages: 1 -->
<svg width="168pt" height="34pt"
 viewBox="0.00 0.00 168.00 34.00" xmlns="http://www.w3.org/2000/svg" xmlns:xlink="http://www.w3.org/1999/xlink">
<g id="graph1" class="graph" transform="scale(1 1) rotate(0) translate(4 30)">
<title>proc~~parse_clasg~~CallsGraph</title>
<polygon fill="white" stroke="white" points="-4,5 -4,-30 165,-30 165,5 -4,5"/>
<!-- proc~parse_clasg -->
<g id="node1" class="node"><title>proc~parse_clasg</title>
<polygon fill="none" stroke="black" points="70,-26 3.55271e-14,-26 0,-1.24345e-14 70,-3.55271e-15 70,-26"/>
<text text-anchor="middle" x="35" y="-10.55" font-family="Helvetica,sans-Serif" font-size="10.50">parse_clasg</text>
</g>
<!-- cton -->
<g id="node2" class="node"><title>cton</title>
<polygon fill="#777777" stroke="#777777" points="160,-26 106,-26 106,-1.24345e-14 160,-3.55271e-15 160,-26"/>
<text text-anchor="middle" x="133" y="-10.55" font-family="Helvetica,sans-Serif" font-size="10.50" fill="white">cton</text>
</g>
<!-- proc~parse_clasg&#45;&gt;cton -->
<g id="edge2" class="edge"><title>proc~parse_clasg&#45;&gt;cton</title>
<path fill="none" stroke="black" d="M70.1034,-13C78.3675,-13 87.2064,-13 95.5686,-13"/>
<polygon fill="black" stroke="black" points="95.8266,-16.5001 105.827,-13 95.8266,-9.5001 95.8266,-16.5001"/>
</g>
</g>
</svg>
