<?xml version="1.0" encoding="UTF-8" standalone="no"?>
<!DOCTYPE svg PUBLIC "-//W3C//DTD SVG 1.1//EN"
 "http://www.w3.org/Graphics/SVG/1.1/DTD/svg11.dtd">
<!-- Generated by graphviz version 2.26.3 (20100126.1600)
 -->
<!-- Title: proc~~get_cla_list_varying_r4p~~CallsGraph Pages: 1 -->
<svg width="232pt" height="166pt"
 viewBox="0.00 0.00 232.00 166.00" xmlns="http://www.w3.org/2000/svg" xmlns:xlink="http://www.w3.org/1999/xlink">
<g id="graph1" class="graph" transform="scale(1 1) rotate(0) translate(4 162)">
<title>proc~~get_cla_list_varying_r4p~~CallsGraph</title>
<polygon fill="white" stroke="white" points="-4,5 -4,-162 229,-162 229,5 -4,5"/>
<!-- proc~get_cla_list_varying_r4p -->
<g id="node1" class="node"><title>proc~get_cla_list_varying_r4p</title>
<polygon fill="none" stroke="black" points="133,-92 1,-92 1,-66 133,-66 133,-92"/>
<text text-anchor="middle" x="67" y="-76.55" font-family="Helvetica,sans-Serif" font-size="10.50">get_cla_list_varying_R4P</text>
</g>
<!-- valsd -->
<g id="node2" class="node"><title>valsd</title>
<polygon fill="#777777" stroke="#777777" points="224,-158 170,-158 170,-132 224,-132 224,-158"/>
<text text-anchor="middle" x="197" y="-142.55" font-family="Helvetica,sans-Serif" font-size="10.50" fill="white">valsd</text>
</g>
<!-- proc~get_cla_list_varying_r4p&#45;&gt;valsd -->
<g id="edge2" class="edge"><title>proc~get_cla_list_varying_r4p&#45;&gt;valsd</title>
<path fill="none" stroke="black" d="M92.6838,-92.0395C112.626,-102.164 140.476,-116.303 162.384,-127.426"/>
<polygon fill="black" stroke="black" points="160.868,-130.581 171.37,-131.988 164.037,-124.34 160.868,-130.581"/>
</g>
<!-- cton -->
<g id="node3" class="node"><title>cton</title>
<polygon fill="#777777" stroke="#777777" points="224,-114 170,-114 170,-88 224,-88 224,-114"/>
<text text-anchor="middle" x="197" y="-98.55" font-family="Helvetica,sans-Serif" font-size="10.50" fill="white">cton</text>
</g>
<!-- proc~get_cla_list_varying_r4p&#45;&gt;cton -->
<g id="edge4" class="edge"><title>proc~get_cla_list_varying_r4p&#45;&gt;cton</title>
<path fill="none" stroke="black" d="M133.523,-90.2578C142.572,-91.789 151.581,-93.3136 159.848,-94.7128"/>
<polygon fill="black" stroke="black" points="159.428,-98.1913 169.871,-96.409 160.596,-91.2894 159.428,-98.1913"/>
</g>
<!-- proc~tokenize -->
<g id="node4" class="node"><title>proc~tokenize</title>
<a xlink:href="../proc/tokenize.html" xlink:title="tokenize">
<polygon fill="#d9534f" stroke="#d9534f" points="224,-70 170,-70 170,-44 224,-44 224,-70"/>
<text text-anchor="middle" x="197" y="-54.55" font-family="Helvetica,sans-Serif" font-size="10.50" fill="white">tokenize</text>
</a>
</g>
<!-- proc~get_cla_list_varying_r4p&#45;&gt;proc~tokenize -->
<g id="edge6" class="edge"><title>proc~get_cla_list_varying_r4p&#45;&gt;proc~tokenize</title>
<path fill="none" stroke="black" d="M133.523,-67.7422C142.572,-66.211 151.581,-64.6864 159.848,-63.2872"/>
<polygon fill="black" stroke="black" points="160.596,-66.7106 169.871,-61.591 159.428,-59.8087 160.596,-66.7106"/>
</g>
<!-- valsv -->
<g id="node5" class="node"><title>valsv</title>
<polygon fill="#777777" stroke="#777777" points="224,-26 170,-26 170,-1.24345e-14 224,-3.55271e-15 224,-26"/>
<text text-anchor="middle" x="197" y="-10.55" font-family="Helvetica,sans-Serif" font-size="10.50" fill="white">valsv</text>
</g>
<!-- proc~get_cla_list_varying_r4p&#45;&gt;valsv -->
<g id="edge8" class="edge"><title>proc~get_cla_list_varying_r4p&#45;&gt;valsv</title>
<path fill="none" stroke="black" d="M92.6838,-65.9605C112.626,-55.8362 140.476,-41.6967 162.384,-30.574"/>
<polygon fill="black" stroke="black" points="164.037,-33.6602 171.37,-26.0124 160.868,-27.4185 164.037,-33.6602"/>
</g>
</g>
</svg>
