<?xml version="1.0" encoding="UTF-8" standalone="no"?>
<!DOCTYPE svg PUBLIC "-//W3C//DTD SVG 1.1//EN"
 "http://www.w3.org/Graphics/SVG/1.1/DTD/svg11.dtd">
<!-- Generated by graphviz version 2.26.3 (20100126.1600)
 -->
<!-- Title: proc~~usage_cla~~CallsGraph Pages: 1 -->
<svg width="160pt" height="78pt"
 viewBox="0.00 0.00 160.00 78.00" xmlns="http://www.w3.org/2000/svg" xmlns:xlink="http://www.w3.org/1999/xlink">
<g id="graph1" class="graph" transform="scale(1 1) rotate(0) translate(4 74)">
<title>proc~~usage_cla~~CallsGraph</title>
<polygon fill="white" stroke="white" points="-4,5 -4,-74 157,-74 157,5 -4,5"/>
<!-- proc~usage_cla -->
<g id="node1" class="node"><title>proc~usage_cla</title>
<polygon fill="none" stroke="black" points="61,-48 1,-48 1,-22 61,-22 61,-48"/>
<text text-anchor="middle" x="31" y="-32.55" font-family="Helvetica,sans-Serif" font-size="10.50">usage_cla</text>
</g>
<!-- str -->
<g id="node2" class="node"><title>str</title>
<polygon fill="#777777" stroke="#777777" points="152,-70 98,-70 98,-44 152,-44 152,-70"/>
<text text-anchor="middle" x="125" y="-54.55" font-family="Helvetica,sans-Serif" font-size="10.50" fill="white">str</text>
</g>
<!-- proc~usage_cla&#45;&gt;str -->
<g id="edge2" class="edge"><title>proc~usage_cla&#45;&gt;str</title>
<path fill="none" stroke="black" d="M61.5191,-42.1428C69.9188,-44.1087 79.1227,-46.2628 87.8518,-48.3058"/>
<polygon fill="black" stroke="black" points="87.2699,-51.7641 97.8044,-50.6351 88.8651,-44.9482 87.2699,-51.7641"/>
</g>
<!-- cton -->
<g id="node3" class="node"><title>cton</title>
<polygon fill="#777777" stroke="#777777" points="152,-26 98,-26 98,-1.24345e-14 152,-3.55271e-15 152,-26"/>
<text text-anchor="middle" x="125" y="-10.55" font-family="Helvetica,sans-Serif" font-size="10.50" fill="white">cton</text>
</g>
<!-- proc~usage_cla&#45;&gt;cton -->
<g id="edge4" class="edge"><title>proc~usage_cla&#45;&gt;cton</title>
<path fill="none" stroke="black" d="M61.5191,-27.8572C69.9188,-25.8913 79.1227,-23.7372 87.8518,-21.6942"/>
<polygon fill="black" stroke="black" points="88.8651,-25.0518 97.8044,-19.3649 87.2699,-18.2359 88.8651,-25.0518"/>
</g>
</g>
</svg>
