<?xml version="1.0" encoding="UTF-8" standalone="no"?>
<!DOCTYPE svg PUBLIC "-//W3C//DTD SVG 1.1//EN"
 "http://www.w3.org/Graphics/SVG/1.1/DTD/svg11.dtd">
<!-- Generated by graphviz version 2.26.3 (20100126.1600)
 -->
<!-- Title: proc~~add~~CallsGraph Pages: 1 -->
<svg width="172pt" height="52pt"
 viewBox="0.00 0.00 172.00 52.00" xmlns="http://www.w3.org/2000/svg" xmlns:xlink="http://www.w3.org/1999/xlink">
<g id="graph1" class="graph" transform="scale(1 1) rotate(0) translate(4 48)">
<title>proc~~add~~CallsGraph</title>
<polygon fill="white" stroke="white" points="-4,5 -4,-48 169,-48 169,5 -4,5"/>
<!-- proc~add -->
<g id="node1" class="node"><title>proc~add</title>
<polygon fill="none" stroke="black" points="54,-26 2.13163e-14,-26 0,-1.24345e-14 54,-3.55271e-15 54,-26"/>
<text text-anchor="middle" x="27" y="-10.55" font-family="Helvetica,sans-Serif" font-size="10.50">add</text>
</g>
<!-- proc~upper_case -->
<g id="node2" class="node"><title>proc~upper_case</title>
<a xlink:href="../proc/upper_case.html" xlink:title="Upper_Case">
<polygon fill="#d94e8f" stroke="#d94e8f" points="163,-26 91,-26 91,-1.24345e-14 163,-3.55271e-15 163,-26"/>
<text text-anchor="middle" x="127" y="-10.55" font-family="Helvetica,sans-Serif" font-size="10.50" fill="white">Upper_Case</text>
</a>
</g>
<!-- proc~add&#45;&gt;proc~upper_case -->
<g id="edge4" class="edge"><title>proc~add&#45;&gt;proc~upper_case</title>
<path fill="none" stroke="black" d="M54.0614,-13C62.0437,-13 71.0218,-13 79.8791,-13"/>
<polygon fill="black" stroke="black" points="80.1543,-16.5001 90.1542,-13 80.1542,-9.5001 80.1543,-16.5001"/>
</g>
<!-- proc~upper_case&#45;&gt;proc~upper_case -->
<g id="edge2" class="edge"><title>proc~upper_case&#45;&gt;proc~upper_case</title>
<path fill="none" stroke="black" d="M110.081,-26.0602C104.954,-35.0996 110.594,-44 127,-44 136.998,-44 142.997,-40.6949 144.999,-36.0674"/>
<polygon fill="black" stroke="black" points="148.471,-35.627 143.919,-26.0602 141.512,-36.3779 148.471,-35.627"/>
</g>
</g>
</svg>
