<?xml version="1.0" encoding="UTF-8" standalone="no"?>
<!DOCTYPE svg PUBLIC "-//W3C//DTD SVG 1.1//EN"
 "http://www.w3.org/Graphics/SVG/1.1/DTD/svg11.dtd">
<!-- Generated by graphviz version 2.26.3 (20100126.1600)
 -->
<!-- Title: proc~~get_cla~~CallsGraph Pages: 1 -->
<svg width="152pt" height="34pt"
 viewBox="0.00 0.00 152.00 34.00" xmlns="http://www.w3.org/2000/svg" xmlns:xlink="http://www.w3.org/1999/xlink">
<g id="graph1" class="graph" transform="scale(1 1) rotate(0) translate(4 30)">
<title>proc~~get_cla~~CallsGraph</title>
<polygon fill="white" stroke="white" points="-4,5 -4,-30 149,-30 149,5 -4,5"/>
<!-- proc~get_cla -->
<g id="node1" class="node"><title>proc~get_cla</title>
<polygon fill="none" stroke="black" points="54,-26 2.13163e-14,-26 0,-1.24345e-14 54,-3.55271e-15 54,-26"/>
<text text-anchor="middle" x="27" y="-10.55" font-family="Helvetica,sans-Serif" font-size="10.50">get_cla</text>
</g>
<!-- cton -->
<g id="node2" class="node"><title>cton</title>
<polygon fill="#777777" stroke="#777777" points="144,-26 90,-26 90,-1.24345e-14 144,-3.55271e-15 144,-26"/>
<text text-anchor="middle" x="117" y="-10.55" font-family="Helvetica,sans-Serif" font-size="10.50" fill="white">cton</text>
</g>
<!-- proc~get_cla&#45;&gt;cton -->
<g id="edge2" class="edge"><title>proc~get_cla&#45;&gt;cton</title>
<path fill="none" stroke="black" d="M54.003,-13C62.0277,-13 70.9665,-13 79.5309,-13"/>
<polygon fill="black" stroke="black" points="79.7051,-16.5001 89.705,-13 79.705,-9.5001 79.7051,-16.5001"/>
</g>
</g>
</svg>
