<?xml version="1.0" encoding="UTF-8" standalone="no"?>
<!DOCTYPE svg PUBLIC "-//W3C//DTD SVG 1.1//EN"
 "http://www.w3.org/Graphics/SVG/1.1/DTD/svg11.dtd">
<!-- Generated by graphviz version 2.26.3 (20100126.1600)
 -->
<!-- Title: proc~~get_args_from_string~~CallsGraph Pages: 1 -->
<svg width="326pt" height="55pt"
 viewBox="0.00 0.00 326.00 55.00" xmlns="http://www.w3.org/2000/svg" xmlns:xlink="http://www.w3.org/1999/xlink">
<g id="graph1" class="graph" transform="scale(1 1) rotate(0) translate(4 51)">
<title>proc~~get_args_from_string~~CallsGraph</title>
<polygon fill="white" stroke="white" points="-4,5 -4,-51 323,-51 323,5 -4,5"/>
<!-- proc~get_args_from_string -->
<g id="node1" class="node"><title>proc~get_args_from_string</title>
<polygon fill="none" stroke="black" points="115,-26 1,-26 1,-1.24345e-14 115,-3.55271e-15 115,-26"/>
<text text-anchor="middle" x="58" y="-10.55" font-family="Helvetica,sans-Serif" font-size="10.50">get_args_from_string</text>
</g>
<!-- none~sanitize_args -->
<g id="node2" class="node"><title>none~sanitize_args</title>
<polygon fill="#d94e8f" stroke="#d94e8f" points="228,-47 152,-47 152,-21 228,-21 228,-47"/>
<text text-anchor="middle" x="190" y="-31.55" font-family="Helvetica,sans-Serif" font-size="10.50" fill="white">sanitize_args</text>
</g>
<!-- proc~get_args_from_string&#45;&gt;none~sanitize_args -->
<g id="edge4" class="edge"><title>proc~get_args_from_string&#45;&gt;none~sanitize_args</title>
<path fill="none" stroke="black" d="M115.513,-22.1498C124.206,-23.5328 133.099,-24.9476 141.575,-26.296"/>
<polygon fill="black" stroke="black" points="141.239,-29.7865 151.665,-27.9012 142.339,-22.8735 141.239,-29.7865"/>
</g>
<!-- proc~tokenize -->
<g id="node3" class="node"><title>proc~tokenize</title>
<a xlink:href="../proc/tokenize.html" xlink:title="tokenize">
<polygon fill="#d9534f" stroke="#d9534f" points="318,-26 264,-26 264,-1.24345e-14 318,-3.55271e-15 318,-26"/>
<text text-anchor="middle" x="291" y="-10.55" font-family="Helvetica,sans-Serif" font-size="10.50" fill="white">tokenize</text>
</a>
</g>
<!-- proc~get_args_from_string&#45;&gt;proc~tokenize -->
<g id="edge6" class="edge"><title>proc~get_args_from_string&#45;&gt;proc~tokenize</title>
<path fill="none" stroke="black" d="M115.833,-12.2638C148.718,-11.9444 190.665,-11.7037 228,-12 236.23,-12.0653 245.063,-12.1786 253.435,-12.306"/>
<polygon fill="black" stroke="black" points="253.657,-15.81 263.712,-12.4725 253.77,-8.8109 253.657,-15.81"/>
</g>
<!-- none~sanitize_args&#45;&gt;proc~tokenize -->
<g id="edge2" class="edge"><title>none~sanitize_args&#45;&gt;proc~tokenize</title>
<path fill="none" stroke="black" d="M228.184,-26.0608C236.603,-24.3102 245.509,-22.4585 253.886,-20.7169"/>
<polygon fill="black" stroke="black" points="254.694,-24.1238 263.772,-18.6613 253.269,-17.2703 254.694,-24.1238"/>
</g>
</g>
</svg>
