<?xml version="1.0" encoding="UTF-8" standalone="no"?>
<!DOCTYPE svg PUBLIC "-//W3C//DTD SVG 1.1//EN"
 "http://www.w3.org/Graphics/SVG/1.1/DTD/svg11.dtd">
<!-- Generated by graphviz version 2.26.3 (20100126.1600)
 -->
<!-- Title: proc~~get_cla_list_varying_i8p~~CallsGraph Pages: 1 -->
<svg width="226pt" height="166pt"
 viewBox="0.00 0.00 226.00 166.00" xmlns="http://www.w3.org/2000/svg" xmlns:xlink="http://www.w3.org/1999/xlink">
<g id="graph1" class="graph" transform="scale(1 1) rotate(0) translate(4 162)">
<title>proc~~get_cla_list_varying_i8p~~CallsGraph</title>
<polygon fill="white" stroke="white" points="-4,5 -4,-162 223,-162 223,5 -4,5"/>
<!-- proc~get_cla_list_varying_i8p -->
<g id="node1" class="node"><title>proc~get_cla_list_varying_i8p</title>
<polygon fill="none" stroke="black" points="128,-92 6.39488e-14,-92 0,-66 128,-66 128,-92"/>
<text text-anchor="middle" x="64" y="-76.55" font-family="Helvetica,sans-Serif" font-size="10.50">get_cla_list_varying_I8P</text>
</g>
<!-- valsd -->
<g id="node2" class="node"><title>valsd</title>
<polygon fill="#777777" stroke="#777777" points="218,-158 164,-158 164,-132 218,-132 218,-158"/>
<text text-anchor="middle" x="191" y="-142.55" font-family="Helvetica,sans-Serif" font-size="10.50" fill="white">valsd</text>
</g>
<!-- proc~get_cla_list_varying_i8p&#45;&gt;valsd -->
<g id="edge2" class="edge"><title>proc~get_cla_list_varying_i8p&#45;&gt;valsd</title>
<path fill="none" stroke="black" d="M89.0911,-92.0395C108.486,-102.119 135.538,-116.177 156.896,-127.277"/>
<polygon fill="black" stroke="black" points="155.474,-130.482 165.961,-131.988 158.702,-124.271 155.474,-130.482"/>
</g>
<!-- cton -->
<g id="node3" class="node"><title>cton</title>
<polygon fill="#777777" stroke="#777777" points="218,-114 164,-114 164,-88 218,-88 218,-114"/>
<text text-anchor="middle" x="191" y="-98.55" font-family="Helvetica,sans-Serif" font-size="10.50" fill="white">cton</text>
</g>
<!-- proc~get_cla_list_varying_i8p&#45;&gt;cton -->
<g id="edge4" class="edge"><title>proc~get_cla_list_varying_i8p&#45;&gt;cton</title>
<path fill="none" stroke="black" d="M128.244,-90.1289C136.971,-91.6406 145.679,-93.1491 153.709,-94.5401"/>
<polygon fill="black" stroke="black" points="153.368,-98.0331 163.819,-96.2914 154.563,-91.1358 153.368,-98.0331"/>
</g>
<!-- proc~tokenize -->
<g id="node4" class="node"><title>proc~tokenize</title>
<a xlink:href="../proc/tokenize.html" xlink:title="tokenize">
<polygon fill="#d9534f" stroke="#d9534f" points="218,-70 164,-70 164,-44 218,-44 218,-70"/>
<text text-anchor="middle" x="191" y="-54.55" font-family="Helvetica,sans-Serif" font-size="10.50" fill="white">tokenize</text>
</a>
</g>
<!-- proc~get_cla_list_varying_i8p&#45;&gt;proc~tokenize -->
<g id="edge6" class="edge"><title>proc~get_cla_list_varying_i8p&#45;&gt;proc~tokenize</title>
<path fill="none" stroke="black" d="M128.244,-67.8711C136.971,-66.3594 145.679,-64.8509 153.709,-63.4599"/>
<polygon fill="black" stroke="black" points="154.563,-66.8642 163.819,-61.7086 153.368,-59.9669 154.563,-66.8642"/>
</g>
<!-- valsv -->
<g id="node5" class="node"><title>valsv</title>
<polygon fill="#777777" stroke="#777777" points="218,-26 164,-26 164,-1.24345e-14 218,-3.55271e-15 218,-26"/>
<text text-anchor="middle" x="191" y="-10.55" font-family="Helvetica,sans-Serif" font-size="10.50" fill="white">valsv</text>
</g>
<!-- proc~get_cla_list_varying_i8p&#45;&gt;valsv -->
<g id="edge8" class="edge"><title>proc~get_cla_list_varying_i8p&#45;&gt;valsv</title>
<path fill="none" stroke="black" d="M89.0911,-65.9605C108.486,-55.8814 135.538,-41.8229 156.896,-30.7232"/>
<polygon fill="black" stroke="black" points="158.702,-33.7294 165.961,-26.0124 155.474,-27.5181 158.702,-33.7294"/>
</g>
</g>
</svg>
