<?xml version="1.0" encoding="UTF-8" standalone="no"?>
<!DOCTYPE svg PUBLIC "-//W3C//DTD SVG 1.1//EN"
 "http://www.w3.org/Graphics/SVG/1.1/DTD/svg11.dtd">
<!-- Generated by graphviz version 2.26.3 (20100126.1600)
 -->
<!-- Title: type~~type_command_line_interface~~InheritsGraph Pages: 1 -->
<svg width="444pt" height="78pt"
 viewBox="0.00 0.00 444.00 78.00" xmlns="http://www.w3.org/2000/svg" xmlns:xlink="http://www.w3.org/1999/xlink">
<g id="graph1" class="graph" transform="scale(1 1) rotate(0) translate(4 74)">
<title>type~~type_command_line_interface~~InheritsGraph</title>
<polygon fill="white" stroke="white" points="-4,5 -4,-74 441,-74 441,5 -4,5"/>
<!-- type~type_command_line_interface -->
<g id="node1" class="node"><title>type~type_command_line_interface</title>
<polygon fill="none" stroke="black" points="436,-48 270,-48 270,-22 436,-22 436,-48"/>
<text text-anchor="middle" x="353" y="-32.55" font-family="Helvetica,sans-Serif" font-size="10.50">Type_Command_Line_Interface</text>
</g>
<!-- Type_Command_Line_Arguments_Group -->
<g id="node2" class="node"><title>Type_Command_Line_Arguments_Group</title>
<polygon fill="#5cb85c" stroke="#5cb85c" points="212,-70 7.10543e-14,-70 0,-44 212,-44 212,-70"/>
<text text-anchor="middle" x="106" y="-54.55" font-family="Helvetica,sans-Serif" font-size="10.50" fill="white">Type_Command_Line_Arguments_Group</text>
</g>
<!-- Type_Command_Line_Arguments_Group&#45;&gt;type~type_command_line_interface -->
<g id="edge2" class="edge"><title>Type_Command_Line_Arguments_Group&#45;&gt;type~type_command_line_interface</title>
<path fill="none" stroke="black" stroke-dasharray="5,2" d="M212.184,-47.5423C227.951,-46.138 244.102,-44.6994 259.581,-43.3207"/>
<polygon fill="black" stroke="black" points="259.996,-46.7977 269.646,-42.4242 259.375,-39.8253 259.996,-46.7977"/>
<text text-anchor="middle" x="241" y="-49.45" font-family="Helvetica,sans-Serif" font-size="9.50">clasg</text>
</g>
<!-- Type_Object -->
<g id="node4" class="node"><title>Type_Object</title>
<polygon fill="#5cb85c" stroke="#5cb85c" points="142,-26 70,-26 70,-1.24345e-14 142,-3.55271e-15 142,-26"/>
<text text-anchor="middle" x="106" y="-10.55" font-family="Helvetica,sans-Serif" font-size="10.50" fill="white">Type_Object</text>
</g>
<!-- Type_Object&#45;&gt;type~type_command_line_interface -->
<g id="edge4" class="edge"><title>Type_Object&#45;&gt;type~type_command_line_interface</title>
<path fill="none" stroke="black" d="M142.712,-16.2699C173.563,-19.0178 219.026,-23.0671 259.794,-26.6983"/>
<polygon fill="black" stroke="black" points="259.501,-30.1859 269.772,-27.587 260.122,-23.2135 259.501,-30.1859"/>
</g>
</g>
</svg>
