<?xml version="1.0" encoding="UTF-8" standalone="no"?>
<!DOCTYPE svg PUBLIC "-//W3C//DTD SVG 1.1//EN"
 "http://www.w3.org/Graphics/SVG/1.1/DTD/svg11.dtd">
<!-- Generated by graphviz version 2.26.3 (20100126.1600)
 -->
<!-- Title: type~~graph~~TypeGraph Pages: 1 -->
<svg width="490pt" height="166pt"
 viewBox="0.00 0.00 490.00 166.00" xmlns="http://www.w3.org/2000/svg" xmlns:xlink="http://www.w3.org/1999/xlink">
<g id="graph1" class="graph" transform="scale(1 1) rotate(0) translate(4 162)">
<title>type~~graph~~TypeGraph</title>
<polygon fill="white" stroke="white" points="-4,5 -4,-162 487,-162 487,5 -4,5"/>
<!-- type~type_command_line_argument -->
<g id="node1" class="node"><title>type~type_command_line_argument</title>
<a xlink:href="../type/type_command_line_argument.html" xlink:title="Type_Command_Line_Argument">
<polygon fill="#5cb85c" stroke="#5cb85c" points="461,-70 291,-70 291,-44 461,-44 461,-70"/>
<text text-anchor="middle" x="376" y="-54.55" font-family="Helvetica,sans-Serif" font-size="10.50" fill="white">Type_Command_Line_Argument</text>
</a>
</g>
<!-- type~type_command_line_interface -->
<g id="node2" class="node"><title>type~type_command_line_interface</title>
<a xlink:href="../type/type_command_line_interface.html" xlink:title="Type_Command_Line_Interface">
<polygon fill="#5cb85c" stroke="#5cb85c" points="459,-114 293,-114 293,-88 459,-88 459,-114"/>
<text text-anchor="middle" x="376" y="-98.55" font-family="Helvetica,sans-Serif" font-size="10.50" fill="white">Type_Command_Line_Interface</text>
</a>
</g>
<!-- type~type_object -->
<g id="node3" class="node"><title>type~type_object</title>
<a xlink:href="../type/type_object.html" xlink:title="Type_Object">
<polygon fill="#5cb85c" stroke="#5cb85c" points="142,-158 70,-158 70,-132 142,-132 142,-158"/>
<text text-anchor="middle" x="106" y="-142.55" font-family="Helvetica,sans-Serif" font-size="10.50" fill="white">Type_Object</text>
</a>
</g>
<!-- type~type_command_line_arguments_group -->
<g id="node4" class="node"><title>type~type_command_line_arguments_group</title>
<a xlink:href="../type/type_command_line_arguments_group.html" xlink:title="Type_Command_Line_Arguments_Group">
<polygon fill="#5cb85c" stroke="#5cb85c" points="482,-26 270,-26 270,-1.24345e-14 482,-3.55271e-15 482,-26"/>
<text text-anchor="middle" x="376" y="-10.55" font-family="Helvetica,sans-Serif" font-size="10.50" fill="white">Type_Command_Line_Arguments_Group</text>
</a>
</g>
<!-- Type_Object -->
<g id="node5" class="node"><title>Type_Object</title>
<polygon fill="#5cb85c" stroke="#5cb85c" points="142,-70 70,-70 70,-44 142,-44 142,-70"/>
<text text-anchor="middle" x="106" y="-54.55" font-family="Helvetica,sans-Serif" font-size="10.50" fill="white">Type_Object</text>
</g>
<!-- Type_Object&#45;&gt;type~type_command_line_argument -->
<g id="edge2" class="edge"><title>Type_Object&#45;&gt;type~type_command_line_argument</title>
<path fill="none" stroke="black" d="M241,-57C253.7,-57 267.072,-57 280.263,-57"/>
<polygon fill="black" stroke="black" points="280.301,-60.5001 290.301,-57 280.301,-53.5001 280.301,-60.5001"/>
</g>
<!-- Type_Object&#45;&gt;type~type_command_line_interface -->
<g id="edge6" class="edge"><title>Type_Object&#45;&gt;type~type_command_line_interface</title>
<path fill="none" stroke="black" d="M241,-57C257.178,-57 255.273,-72.3027 270,-79 274.692,-81.1336 279.594,-83.0626 284.609,-84.8062"/>
<polygon fill="black" stroke="black" points="283.774,-88.2139 294.365,-87.936 285.912,-81.5485 283.774,-88.2139"/>
</g>
<!-- Type_Object&#45;&gt;type~type_command_line_arguments_group -->
<g id="edge10" class="edge"><title>Type_Object&#45;&gt;type~type_command_line_arguments_group</title>
<path fill="none" stroke="black" d="M142.671,-57C169.822,-57 207.719,-57 241,-57"/>
<path fill="none" stroke="black" d="M241,-57C257.178,-57 255.273,-41.6973 270,-35 274.692,-32.8664 279.594,-30.9374 284.609,-29.1938"/>
<polygon fill="black" stroke="black" points="285.912,-32.4515 294.365,-26.064 283.774,-25.7861 285.912,-32.4515"/>
</g>
<!-- Type_Command_Line_Arguments_Group -->
<g id="node7" class="node"><title>Type_Command_Line_Arguments_Group</title>
<polygon fill="#5cb85c" stroke="#5cb85c" points="212,-114 7.10543e-14,-114 0,-88 212,-88 212,-114"/>
<text text-anchor="middle" x="106" y="-98.55" font-family="Helvetica,sans-Serif" font-size="10.50" fill="white">Type_Command_Line_Arguments_Group</text>
</g>
<!-- Type_Command_Line_Arguments_Group&#45;&gt;type~type_command_line_interface -->
<g id="edge4" class="edge"><title>Type_Command_Line_Arguments_Group&#45;&gt;type~type_command_line_interface</title>
<path fill="none" stroke="black" stroke-dasharray="5,2" d="M212.324,-101C235.486,-101 259.83,-101 282.454,-101"/>
<polygon fill="black" stroke="black" points="282.717,-104.5 292.717,-101 282.717,-97.5001 282.717,-104.5"/>
<text text-anchor="middle" x="241" y="-105.45" font-family="Helvetica,sans-Serif" font-size="9.50">clasg</text>
</g>
<!-- Type_Command_Line_Argument -->
<g id="node10" class="node"><title>Type_Command_Line_Argument</title>
<polygon fill="#5cb85c" stroke="#5cb85c" points="191,-26 21,-26 21,-1.24345e-14 191,-3.55271e-15 191,-26"/>
<text text-anchor="middle" x="106" y="-10.55" font-family="Helvetica,sans-Serif" font-size="10.50" fill="white">Type_Command_Line_Argument</text>
</g>
<!-- Type_Command_Line_Argument&#45;&gt;type~type_command_line_arguments_group -->
<g id="edge8" class="edge"><title>Type_Command_Line_Argument&#45;&gt;type~type_command_line_arguments_group</title>
<path fill="none" stroke="black" stroke-dasharray="5,2" d="M191.801,-13C213.322,-13 236.776,-13 259.516,-13"/>
<polygon fill="black" stroke="black" points="259.555,-16.5001 269.555,-13 259.555,-9.5001 259.555,-16.5001"/>
<text text-anchor="middle" x="241" y="-17.45" font-family="Helvetica,sans-Serif" font-size="9.50">cla</text>
</g>
</g>
</svg>
