<?xml version="1.0" encoding="UTF-8" standalone="no"?>
<!DOCTYPE svg PUBLIC "-//W3C//DTD SVG 1.1//EN"
 "http://www.w3.org/Graphics/SVG/1.1/DTD/svg11.dtd">
<!-- Generated by graphviz version 2.26.3 (20100126.1600)
 -->
<!-- Title: type~~type_command_line_arguments_group~~InheritsGraph Pages: 1 -->
<svg width="442pt" height="78pt"
 viewBox="0.00 0.00 442.00 78.00" xmlns="http://www.w3.org/2000/svg" xmlns:xlink="http://www.w3.org/1999/xlink">
<g id="graph1" class="graph" transform="scale(1 1) rotate(0) translate(4 74)">
<title>type~~type_command_line_arguments_group~~InheritsGraph</title>
<polygon fill="white" stroke="white" points="-4,5 -4,-74 439,-74 439,5 -4,5"/>
<!-- type~type_command_line_arguments_group -->
<g id="node1" class="node"><title>type~type_command_line_arguments_group</title>
<polygon fill="none" stroke="black" points="434,-48 222,-48 222,-22 434,-22 434,-48"/>
<text text-anchor="middle" x="328" y="-32.55" font-family="Helvetica,sans-Serif" font-size="10.50">Type_Command_Line_Arguments_Group</text>
</g>
<!-- Type_Command_Line_Argument -->
<g id="node2" class="node"><title>Type_Command_Line_Argument</title>
<polygon fill="#5cb85c" stroke="#5cb85c" points="171,-70 1,-70 1,-44 171,-44 171,-70"/>
<text text-anchor="middle" x="86" y="-54.55" font-family="Helvetica,sans-Serif" font-size="10.50" fill="white">Type_Command_Line_Argument</text>
</g>
<!-- Type_Command_Line_Argument&#45;&gt;type~type_command_line_arguments_group -->
<g id="edge2" class="edge"><title>Type_Command_Line_Argument&#45;&gt;type~type_command_line_arguments_group</title>
<path fill="none" stroke="black" stroke-dasharray="5,2" d="M171.661,-49.2127C184.554,-48.0405 198.035,-46.815 211.442,-45.5961"/>
<polygon fill="black" stroke="black" points="212.028,-49.0574 221.67,-44.6663 211.394,-42.0862 212.028,-49.0574"/>
<text text-anchor="middle" x="197" y="-51.45" font-family="Helvetica,sans-Serif" font-size="9.50">cla</text>
</g>
<!-- Type_Object -->
<g id="node4" class="node"><title>Type_Object</title>
<polygon fill="#5cb85c" stroke="#5cb85c" points="122,-26 50,-26 50,-1.24345e-14 122,-3.55271e-15 122,-26"/>
<text text-anchor="middle" x="86" y="-10.55" font-family="Helvetica,sans-Serif" font-size="10.50" fill="white">Type_Object</text>
</g>
<!-- Type_Object&#45;&gt;type~type_command_line_arguments_group -->
<g id="edge4" class="edge"><title>Type_Object&#45;&gt;type~type_command_line_arguments_group</title>
<path fill="none" stroke="black" d="M122.755,-16.3413C146.78,-18.5255 179.603,-21.5093 211.953,-24.4502"/>
<polygon fill="black" stroke="black" points="211.691,-27.9408 221.967,-25.3606 212.325,-20.9695 211.691,-27.9408"/>
</g>
</g>
</svg>
