<?xml version="1.0" encoding="UTF-8" standalone="no"?>
<!DOCTYPE svg PUBLIC "-//W3C//DTD SVG 1.1//EN"
 "http://www.w3.org/Graphics/SVG/1.1/DTD/svg11.dtd">
<!-- Generated by graphviz version 2.26.3 (20100126.1600)
 -->
<!-- Title: type~~type_command_line_argument~~InheritsGraph Pages: 1 -->
<svg width="290pt" height="34pt"
 viewBox="0.00 0.00 290.00 34.00" xmlns="http://www.w3.org/2000/svg" xmlns:xlink="http://www.w3.org/1999/xlink">
<g id="graph1" class="graph" transform="scale(1 1) rotate(0) translate(4 30)">
<title>type~~type_command_line_argument~~InheritsGraph</title>
<polygon fill="white" stroke="white" points="-4,5 -4,-30 287,-30 287,5 -4,5"/>
<!-- type~type_command_line_argument -->
<g id="node1" class="node"><title>type~type_command_line_argument</title>
<polygon fill="none" stroke="black" points="281,-26 111,-26 111,-1.24345e-14 281,-3.55271e-15 281,-26"/>
<text text-anchor="middle" x="196" y="-10.55" font-family="Helvetica,sans-Serif" font-size="10.50">Type_Command_Line_Argument</text>
</g>
<!-- Type_Object -->
<g id="node2" class="node"><title>Type_Object</title>
<polygon fill="#5cb85c" stroke="#5cb85c" points="73,-26 1,-26 1,-1.24345e-14 73,-3.55271e-15 73,-26"/>
<text text-anchor="middle" x="37" y="-10.55" font-family="Helvetica,sans-Serif" font-size="10.50" fill="white">Type_Object</text>
</g>
<!-- Type_Object&#45;&gt;type~type_command_line_argument -->
<g id="edge2" class="edge"><title>Type_Object&#45;&gt;type~type_command_line_argument</title>
<path fill="none" stroke="black" d="M73.8774,-13C81.9619,-13 90.8813,-13 100.109,-13"/>
<polygon fill="black" stroke="black" points="100.217,-16.5001 110.217,-13 100.217,-9.5001 100.217,-16.5001"/>
</g>
</g>
</svg>
